<?xml version="1.0" encoding="UTF-8"?>
<svg width="35px" height="35px" viewBox="0 0 35 35" version="1.1" xmlns="http://www.w3.org/2000/svg" xmlns:xlink="http://www.w3.org/1999/xlink">
    <!-- Generator: Sketch 64 (93537) - https://sketch.com -->
    <title>Unknown-12</title>
    <desc>Created with Sketch.</desc>
    <g id="Page-1" stroke="none" stroke-width="1" fill="none" fill-rule="evenodd">
        <g id="lkpay---1440" transform="translate(-615.000000, -5201.000000)" fill-rule="nonzero">
            <g id="9_Currencies" transform="translate(0.000000, 4992.000000)">
                <g id="Criptocurrency" transform="translate(262.000000, 144.000000)">
                    <g id="coins/" transform="translate(353.000000, 65.000000)">
                        <g id="Group-8">
                            <g id="Unknown-12">
                                <circle id="Oval" fill="#328332" cx="17.2149061" cy="17.2149061" r="17.2149061"></circle>
                                <g id="Group" transform="translate(9.683385, 4.303727)" fill="#FFFFFF">
                                    <path d="M7.51968619,13.5061698 L0.288349678,12.8853572 L7.51861025,8.79466517 L7.51861025,13.5061698 L7.51968619,13.5061698 Z M7.51968619,18.3048249 L7.51968619,25.7717904 C5.00523396,21.8575511 2.23363407,17.5495209 0,14.0624264 C2.6360325,15.5472121 5.38826562,17.0997815 7.51968619,18.3059008 L7.51968619,18.3048249 Z M7.51968619,7.47234519 L0,11.6684786 L7.51968619,0 L7.51968619,7.47234519 L7.51968619,7.47234519 Z" id="Shape"></path>
                                    <path d="M14.7510227,12.8853572 L7.51968619,13.5061698 L7.51968619,8.79466517 L14.7499468,12.8853572 L14.7510227,12.8853572 Z M7.51968619,18.3059008 C9.65003082,17.1008574 12.401188,15.5472121 15.0382964,14.0624264 C12.8046624,17.5505968 10.0330625,21.8586271 7.51968619,25.7707145 L7.51968619,18.3059008 L7.51968619,18.3059008 Z M7.51968619,7.47234519 L7.51968619,0 L15.0382964,11.6684786 L7.51968619,7.47234519 L7.51968619,7.47234519 Z" id="Shape" fill-opacity="0.601"></path>
                                    <polygon id="Path" opacity="0.2" points="7.51968619 13.5061698 14.7499468 12.8853572 7.51968619 16.9469992"></polygon>
                                    <polygon id="Path" opacity="0.603" points="7.51861025 13.5061698 0.287273746 12.8853572 7.51861025 16.9469992"></polygon>
                                </g>
                            </g>
                        </g>
                    </g>
                </g>
            </g>
        </g>
    </g>
</svg>