<?xml version="1.0" encoding="UTF-8"?>
<svg width="35px" height="35px" viewBox="0 0 35 35" version="1.1" xmlns="http://www.w3.org/2000/svg" xmlns:xlink="http://www.w3.org/1999/xlink">
    <!-- Generator: Sketch 64 (93537) - https://sketch.com -->
    <title>Unknown-5</title>
    <desc>Created with Sketch.</desc>
    <g id="Page-1" stroke="none" stroke-width="1" fill="none" fill-rule="evenodd">
        <g id="lkpay---1440" transform="translate(-664.000000, -5136.000000)" fill-rule="nonzero">
            <g id="9_Currencies" transform="translate(0.000000, 4992.000000)">
                <g id="Criptocurrency" transform="translate(262.000000, 144.000000)">
                    <g id="coins/" transform="translate(402.000000, 0.000000)">
                        <g id="Group-8">
                            <g id="Unknown-5">
                                <circle id="Oval" fill="#23292F" cx="17.2149061" cy="17.2149061" r="17.2149061"></circle>
                                <path d="M24.8217428,8.60745307 L27.9311852,8.60745307 L18.5906812,16.1923496 C17.801688,16.8330465 16.6720017,16.8343432 15.8815398,16.1954592 L6.49324741,8.60745307 L6.49324741,8.60745307 L9.60806949,8.60745307 L15.1331678,13.3329996 C16.3437752,14.3684167 18.1287304,14.3658118 19.3363105,13.3268657 L24.8217428,8.60745307 L24.8217428,8.60745307 Z M6.4555898,26.4281087 L15.8247676,18.5208772 C16.6261693,17.8445244 17.798414,17.8443458 18.6000219,18.5204542 L27.9742225,26.4270328 L27.9742225,26.4270328 L24.8594004,26.4270328 L18.6359248,21.0776944 C17.8311163,20.3859277 16.6421443,20.3842014 15.8353303,21.073628 L9.57041188,26.4270328 L9.57041188,26.4270328 L6.4555898,26.4281087 Z" id="Shape" fill="#D8D8D8"></path>
                            </g>
                        </g>
                    </g>
                </g>
            </g>
        </g>
    </g>
</svg>