<?xml version="1.0" encoding="UTF-8"?>
<svg width="35px" height="35px" viewBox="0 0 35 35" version="1.1" xmlns="http://www.w3.org/2000/svg" xmlns:xlink="http://www.w3.org/1999/xlink">
    <!-- Generator: Sketch 64 (93537) - https://sketch.com -->
    <title>Unknown-4</title>
    <desc>Created with Sketch.</desc>
    <g id="Page-1" stroke="none" stroke-width="1" fill="none" fill-rule="evenodd">
        <g id="lkpay---1440" transform="translate(-561.000000, -5136.000000)" fill-rule="nonzero">
            <g id="9_Currencies" transform="translate(0.000000, 4992.000000)">
                <g id="Criptocurrency" transform="translate(262.000000, 144.000000)">
                    <g id="coins/" transform="translate(299.000000, 0.000000)">
                        <g id="Group-8">
                            <g id="Unknown-4">
                                <circle id="Oval" fill="#8DC351" cx="17.2149061" cy="17.2149061" r="17.2149061"></circle>
                                <path d="M22.8172822,11.3338638 C21.9823592,9.21212665 19.8885962,9.02061082 17.4505352,9.49402073 L16.5822583,6.46742505 L14.7402634,6.99570748 L15.5859456,9.94376016 C15.1017764,10.0814794 14.6089997,10.2342617 14.1194508,10.3848921 L13.2694648,7.41747268 L11.4285458,7.94467918 L12.2946708,10.9712749 C11.8987279,11.0939311 11.5092407,11.2144354 11.127285,11.3241804 L11.1240572,11.3134211 L8.58270664,12.0418268 L9.14757075,14.0107817 C9.14757075,14.0107817 10.5010927,13.5933203 10.4849538,13.6255982 C11.2316503,13.4114878 11.598543,13.7751527 11.7760717,14.1291342 L12.7659288,17.5764192 C12.8164976,17.5624321 12.8842813,17.5452171 12.9639003,17.5333819 L12.7691566,17.5893303 L14.1538806,22.4202634 C14.1883105,22.6644999 14.1581844,23.0787335 13.6374335,23.229364 C13.6664836,23.2433511 12.2968226,23.6123956 12.2968226,23.6123956 L12.5625778,25.9181171 L14.9597534,25.2295209 C15.4062651,25.1036369 15.847397,24.9852844 16.2788456,24.8637041 L17.1578818,27.9247296 L18.9977249,27.3975231 L18.129448,24.3687756 L18.9923452,27.3846119 L20.8354161,26.8563295 L19.9596077,23.8006837 C23.0055702,22.7344354 24.9497786,21.3324965 24.3849145,18.3457103 C23.9308714,15.942079 22.5300084,15.2125974 20.6503558,15.2943682 C21.5627459,14.4443822 21.9554609,13.2952872 21.341104,11.7437938 L22.8172822,11.3338638 Z M22.1179266,18.617921 C22.7742449,20.9064276 18.7825385,21.7693247 17.5344578,22.1286859 L16.3713757,18.0724236 C17.6194564,17.7141384 21.4325581,16.2325806 22.1168507,18.6189969 L22.1179266,18.617921 Z M19.6196133,13.141429 C20.2156795,15.2233567 16.8792155,15.9173326 15.8387896,16.2153656 L14.7843766,12.5367554 C15.8237265,12.2387223 18.9966489,10.9712749 19.6196133,13.1425049 L19.6196133,13.141429 Z" id="Shape" fill="#FFFFFF"></path>
                            </g>
                        </g>
                    </g>
                </g>
            </g>
        </g>
    </g>
</svg>