<?xml version="1.0" encoding="UTF-8"?>
<svg width="45px" height="60px" viewBox="0 0 45 60" version="1.1" xmlns="http://www.w3.org/2000/svg" xmlns:xlink="http://www.w3.org/1999/xlink">
    <!-- Generator: Sketch 64 (93537) - https://sketch.com -->
    <title>ic</title>
    <desc>Created with Sketch.</desc>
    <g id="Page-1" stroke="none" stroke-width="1" fill="none" fill-rule="evenodd">
        <g id="lkpay---1440" transform="translate(-184.000000, -3231.000000)">
            <g id="4_Features" transform="translate(167.000000, 2642.000000)">
                <g id="Point" transform="translate(0.000000, 580.000000)">
                    <g id="ic">
                        <rect id="Rectangle" x="0" y="0" width="78.144" height="78.144" rx="19.008"></rect>
                        <path d="M55.6723359,18.3744 C58.6782835,18.3744 61.1286366,20.7832209 61.2436161,23.7986095 L61.2478355,24.020304 L61.248,62.994096 C61.248,66.0380011 58.8690603,68.5192959 55.8912662,68.6357272 L55.6723359,68.64 L38.458313,68.64 C35.4523654,68.64 33.0018352,66.2311791 32.8868473,63.2157905 L32.8826275,62.994096 L32.8826275,62.7264 L36.4276275,62.7264 L36.4284411,62.994096 C36.4284411,64.0777184 37.2565048,64.965494 38.3068213,65.043962 L38.458313,65.0496 L55.6723359,65.0496 C56.2168912,65.0496841 56.738644,64.8282011 57.1203546,64.4349188 C57.459653,64.0853345 57.6630056,63.6260696 57.6973257,63.1410975 L57.7022078,62.958192 L57.7022078,24.020304 C57.7022078,22.9366816 56.8741441,22.048906 55.8238276,21.970438 L55.6723359,21.9648 L54.6529679,21.9648 C54.2461511,21.9583741 53.8693025,22.1676522 53.654644,22.5100677 L53.5892795,22.629024 L52.7028726,24.531936 C52.4322004,25.1074226 51.8827762,25.4907004 51.2634949,25.5477984 L51.1073401,25.5552 L49.3046275,25.5544 L49.3046275,18.3744 L55.6723359,18.3744 Z M44.7037746,48.9984 C45.123737,48.965543 45.5379556,49.1132426 45.8449311,49.4053067 C46.1519066,49.6973707 46.3232717,50.1068099 46.3171997,50.533296 L46.3171997,50.533296 L46.3171997,54.123696 C46.3171997,57.2418427 43.820799,59.7696 40.7415356,59.7696 L40.7415356,59.7696 L23.5275128,59.7696 C20.4482493,59.7696 17.9520065,57.2418427 17.9520065,54.123696 L17.9520065,54.123696 L17.9520065,50.515344 C17.9507742,50.0919673 18.1243194,49.6873306 18.4306996,49.3992421 C18.7370799,49.1111537 19.1484136,48.9658306 19.5652737,48.9984 C19.7158264,49.0075854 19.8667886,49.0075854 20.0173413,48.9984 C20.4161623,48.9982841 20.7981569,49.1611322 21.076809,49.4500616 C21.3554612,49.738991 21.5071935,50.1295548 21.4976409,50.533296 L21.4976409,50.533296 L21.4976409,54.123696 C21.4976409,55.2589195 22.4064455,56.1792 23.5275128,56.1792 L23.5275128,56.1792 L40.7415356,56.1792 C41.286091,56.1792841 41.8078437,55.9578011 42.1895544,55.5645188 C42.571265,55.1712364 42.7809194,54.6391396 42.7714075,54.087792 L42.7714075,54.087792 L42.7714075,50.497392 C42.7714075,49.6695216 43.4341602,48.9984 44.2517071,48.9984 C44.4022598,49.0075854 44.553222,49.0075854 44.7037746,48.9984 Z M18.9802452,35.0856 C19.2475022,35.0910832 19.5032834,35.1966062 19.6982348,35.381808 L19.6982348,35.381808 L19.9641569,35.606208 C20.2475416,35.829484 20.3926396,36.1882671 20.3453119,36.548688 L20.3453119,36.548688 L20.0793898,38.693952 C20.0499906,38.9171066 19.9505524,39.1247879 19.7957395,39.286368 L19.7957395,39.286368 L19.724827,39.358176 C19.4304226,39.6583083 18.986928,39.7502679 18.5997217,39.5914691 C18.2125153,39.4326703 17.9572013,39.0541194 17.9520131,38.63112 L17.9520131,38.63112 L17.9520131,36.135792 C17.9520131,35.5592743 18.4109374,35.0905275 18.9802452,35.0856 Z M45.2710751,35.0856 C45.8487429,35.0856 46.3170353,35.5598057 46.3170353,36.144768 L46.3170353,36.144768 L46.3170353,38.604192 C46.3104545,39.0332153 46.0489138,39.4158328 45.654697,39.5731509 C45.2604803,39.730469 44.8114808,39.6314032 44.5176292,39.322272 L44.5176292,39.322272 L44.4733088,39.277392 C44.3173165,39.1130579 44.21784,38.9021489 44.1896586,38.676 L44.1896586,38.676 L43.9237365,36.530736 C43.876795,36.1677877 44.0215122,35.8065382 44.3048915,35.57928 L44.3048915,35.57928 L44.5442214,35.381808 C44.742348,35.1960108 45.0010842,35.0905704 45.2710751,35.0856 Z M40.7415356,9.504 C43.820799,9.504 46.3170353,12.0317573 46.3170353,15.149904 L46.3170353,15.149904 L46.3170353,25.921104 C46.3170353,26.9125656 45.5233195,27.716304 44.5442214,27.716304 C43.5651233,27.716304 42.7714075,26.9125656 42.7714075,25.921104 L42.7714075,25.921104 L42.7714075,15.149904 C42.7714075,14.0146805 41.8626029,13.0944 40.7415356,13.0944 L40.7415356,13.0944 L39.7221676,13.0944 C39.270149,13.0872601 38.8551281,13.3464215 38.6584793,13.758624 L38.6584793,13.758624 L37.7720723,15.661536 C37.4788442,16.2849798 36.8584695,16.6828452 36.1765399,16.6848 L36.1765399,16.6848 L27.9506834,16.6848 C27.2403202,16.6908924 26.5949606,16.2669948 26.3108306,15.60768 L26.3108306,15.60768 L25.5662487,13.81248 C25.3854249,13.3792357 24.9670389,13.0967896 24.5025604,13.0944 L24.5025604,13.0944 L23.5275128,13.0944 C22.4064455,13.0944 21.4976409,14.0146805 21.4976409,15.149904 L21.4976409,15.149904 L21.4976409,25.921104 C21.4976409,26.9125656 20.7039251,27.716304 19.724827,27.716304 C18.7457289,27.716304 17.9520131,26.9125656 17.9520131,25.921104 L17.9520131,25.921104 L17.9520131,15.149904 C17.9520131,12.0317573 20.4482493,9.504 23.5275128,9.504 L23.5275128,9.504 Z" id="Path-6" fill="#6B7C89" fill-rule="nonzero"></path>
                        <path d="M39.2213477,34.6154226 C39.7380755,34.6154226 40.1699997,35.0134626 40.2185555,35.5344 L40.2185555,35.5344 L40.9985936,41.8176 L41.6102144,41.8176 C42.2515236,41.8176 42.7714075,42.3440487 42.7714075,42.993456 L42.7714075,42.993456 L42.7714075,43.316592 C42.7714075,43.4801832 42.9023706,43.6128 43.0639218,43.6128 C43.4565217,43.6128 43.8330417,43.7707291 44.1106517,44.0518446 C44.3882617,44.3329601 44.5442214,44.7142346 44.5442214,45.111792 C44.5442214,45.2753832 44.4132583,45.408 44.2517071,45.408 L44.2517071,45.408 L20.0173413,45.408 C19.8557901,45.408 19.724827,45.2753832 19.724827,45.111792 C19.724827,44.2839216 20.3875797,43.6128 21.2051266,43.6128 C21.3666778,43.6128 21.4976409,43.4801832 21.4976409,43.316592 L21.4976409,43.316592 L21.4976409,42.993456 C21.4976409,42.3440487 22.0175247,41.8176 22.658834,41.8176 L22.658834,41.8176 L23.2704548,41.8176 L24.0416288,35.5344 C24.0901847,35.0134626 24.5221089,34.6154226 25.0388366,34.6154226 C25.5555644,34.6154226 25.9874886,35.0134626 26.0360444,35.5344 L26.0360444,35.5344 L26.6653934,40.551984 C26.7548905,41.2758897 27.3631863,41.8187194 28.0836445,41.8176 L28.0836445,41.8176 L29.0941484,41.8176 C29.8146065,41.8187194 30.4229023,41.2758897 30.5123995,40.551984 L30.5123995,40.551984 L31.1328843,35.5344 C31.1814402,35.0134626 31.6133644,34.6154226 32.1300922,34.6154226 C32.6468199,34.6154226 33.0787441,35.0134626 33.1273,35.5344 L33.1273,35.5344 L33.7566489,40.551984 C33.8461461,41.2758897 34.4544419,41.8187194 35.1749,41.8176 L35.1749,41.8176 L36.1854039,41.8176 C36.9058621,41.8187194 37.5141579,41.2758897 37.603655,40.551984 L37.603655,40.551984 L38.2241399,35.5344 C38.2726957,35.0134626 38.7046199,34.6154226 39.2213477,34.6154226 Z M29.7944099,24.7632 C31.148195,23.614272 33.1208534,23.614272 34.4746385,24.7632 L34.4746385,24.7632 L42.2129711,31.324656 C42.4938374,31.5678382 42.5962514,31.9619503 42.4699647,32.3136243 C42.3436779,32.6652982 42.0151899,32.9007401 41.6456707,32.9044337 L41.6456707,32.9044337 L22.6056496,32.9044337 C22.231684,32.9051736 21.8974876,32.6681735 21.7703255,32.3120501 C21.6431635,31.9559268 21.7503944,31.557299 22.0383491,31.31568 L22.0383491,31.31568 Z" id="Path-13" fill="#09CD0A" fill-rule="nonzero"></path>
                    </g>
                </g>
            </g>
        </g>
    </g>
</svg>