<?xml version="1.0" encoding="UTF-8"?>
<svg width="49px" height="49px" viewBox="0 0 49 49" version="1.1" xmlns="http://www.w3.org/2000/svg" xmlns:xlink="http://www.w3.org/1999/xlink">
    <!-- Generator: Sketch 64 (93537) - https://sketch.com -->
    <title>ic</title>
    <desc>Created with Sketch.</desc>
    <g id="Page-1" stroke="none" stroke-width="1" fill="none" fill-rule="evenodd">
        <g id="lkpay---1440" transform="translate(-183.000000, -3043.000000)">
            <g id="4_Features" transform="translate(167.000000, 2642.000000)">
                <g id="Point" transform="translate(1.000000, 386.000000)">
                    <g id="ic">
                        <rect id="Rectangle" x="0" y="0" width="78.144" height="78.144" rx="19.008"></rect>
                        <path d="M49.2839933,15.9327664 C41.6969989,15.111839 34.6016852,19.8129213 32.3989751,27.1201311 C32.1996796,27.801371 31.6215291,28.3038629 30.9192239,28.4062376 C21.953163,29.6874868 15.4316152,37.5774138 15.8599315,46.6253356 C16.2882478,55.6732573 23.5259524,62.9117061 32.5729439,63.3400664 C41.6199354,63.7684268 49.5090512,57.2462084 50.7901687,48.2792256 C50.8925328,47.5768482 51.3949731,46.9986382 52.0761429,46.7993222 C59.281254,44.6458387 63.9726863,37.7148351 63.2951352,30.2246666 C62.617584,22.7344982 56.7585618,16.7580717 49.2839933,15.9327664 Z M47.36384,47.6449813 C46.4210813,54.8988744 40.0862246,60.2258427 32.7789108,59.9094191 C25.4715969,59.5929956 19.6208298,53.7383617 19.3085155,46.430121 C18.9962011,39.1218804 24.326155,32.7893452 31.5798271,31.8505365 C35.9074434,31.2971622 40.2473186,32.7795417 43.3323164,35.8648567 C46.4173142,38.9501717 47.8995413,43.2904931 47.3462239,47.6185544 L47.36384,47.6449813 Z M35.117765,37.818 C35.6960974,37.818 36.1758787,38.1989074 36.2660516,38.6979747 L36.28128,38.8683464 L36.278582,41.0881039 L36.270025,41.1527729 L36.3201601,41.168891 L36.3046767,41.1987086 L36.5646614,41.3281928 L36.8310694,41.4908719 C37.6069763,42.0174766 37.9973886,42.7866959 37.9973886,43.7639242 C37.9973886,44.2608145 37.8780026,44.7032988 37.636722,45.0856298 C37.572214,45.1878486 37.4995131,45.2850803 37.4187515,45.377286 L37.2915801,45.5118204 L37.13435,45.6483734 L37.1782027,45.6681602 C37.3805262,45.7706449 37.5632688,45.8846823 37.7260709,46.0104045 L37.9552739,46.2077678 L38.1542964,46.4227572 C38.5259048,46.8752049 38.709,47.4420726 38.709,48.1126588 C38.709,48.679777 38.5539491,49.2020699 38.2445856,49.6728975 C37.9372353,50.1406611 37.5042146,50.5236219 36.947474,50.8211937 C36.7987559,50.8987952 36.642902,50.9667383 36.474294,51.026524 L36.27965,51.0875809 L36.28128,53.1026536 C36.28128,53.5667259 35.947889,53.9605042 35.4855257,54.0994526 L35.3064932,54.1392527 L35.117765,54.153 C34.5394326,54.153 34.0596514,53.7720926 33.9694784,53.2730253 L33.95425,53.1026536 L33.95425,51.3082771 L32.9870593,51.3082771 L32.9887393,53.1026536 C32.9887393,53.5667259 32.6553484,53.9605042 32.1929851,54.0994526 L32.0139525,54.1392527 L31.8252243,54.153 C31.2468919,54.153 30.7671107,53.7720926 30.6769378,53.2731464 L30.6617094,53.1028198 L30.660575,51.3082771 L29.3109849,51.3085499 L29.1313452,51.2962341 C28.9115167,51.266738 28.7234759,51.1864579 28.581079,51.0527123 C28.3976771,50.8804532 28.314,50.6446734 28.314,50.3620043 C28.314,50.0343592 28.429397,49.7733161 28.6861445,49.6187922 C28.8385611,49.52706 29.0563503,49.478203 29.365378,49.4554495 L29.6146602,49.4430167 L29.77315,49.4401787 L29.77315,42.6263984 L29.6226044,42.624731 C29.3738876,42.6160816 29.1713578,42.5936808 29.0079076,42.5506242 L28.8572208,42.5004266 L28.7310077,42.4349242 C28.4808932,42.2740108 28.3687393,42.0109937 28.3687393,41.6811969 C28.3687393,41.4032805 28.455295,41.1683602 28.6404828,40.9945577 C28.747814,40.8938253 28.8796533,40.8224466 29.0435132,40.7788162 L29.2183249,40.7443757 L29.391958,40.7338184 L30.660575,40.7322335 L30.6617093,38.8683464 C30.6617093,38.4042741 30.9951003,38.0104958 31.4574636,37.8715474 L31.6364962,37.8317473 L31.8252243,37.818 C32.4035568,37.818 32.883338,38.1989074 32.9735109,38.6979747 L32.9887393,38.8683464 L32.98405,40.7322335 L33.6615562,40.7339059 L33.91575,40.7391846 L33.952325,40.7322335 L33.95425,38.8683464 C33.95425,38.4042741 34.287641,38.0104958 34.7500043,37.8715474 L34.9290368,37.8317473 L35.117765,37.818 Z M33.7076493,46.719052 L31.97535,46.7188372 L31.97535,49.438441 L33.6164171,49.4396184 C34.6940106,49.4396184 35.4372866,49.31796 35.8302558,49.0965968 C36.1782783,48.9005524 36.3515592,48.5768956 36.3515592,48.0793352 C36.3515592,47.5732067 36.1851483,47.246547 35.8569014,47.0548765 C35.5333443,46.8659444 34.9399804,46.7505278 34.0883918,46.7246258 L33.7076493,46.719052 Z M33.8536209,42.6285755 L31.97535,42.6281362 L31.97535,44.9984489 L33.4978152,44.9992438 C34.2925342,44.9992438 34.862549,44.8879705 35.2051716,44.6824373 C35.5094239,44.4999218 35.6581943,44.2242546 35.6581943,43.8139097 C35.6581943,43.4230709 35.520683,43.1466166 35.2417199,42.9514557 C34.9905682,42.7757514 34.6294281,42.6686653 34.1532053,42.6378506 L33.8536209,42.6285755 Z" id="Shape" fill="#6B7C89" fill-rule="nonzero"></path>
                        <path d="M61.4567086,49.58295 C61.9239181,49.5852804 62.3710655,49.7731357 62.6997806,50.1051887 C63.0284958,50.4372416 63.211851,50.8862912 63.2095313,51.3535486 L63.2095313,51.3535486 L63.2095313,51.626626 C63.2030441,55.0260148 60.8814716,57.9836897 57.5811697,58.7971102 L57.5811697,58.7971102 L57.5811697,59.4225455 C57.5786989,60.0867022 57.2029727,60.6930286 56.6093625,60.9907947 C56.0157523,61.2885608 55.3051492,61.2271578 54.771404,60.8319773 L54.771404,60.8319773 L51.8383258,58.6473581 C51.391277,58.3149468 51.1277847,57.7906491 51.1277847,57.2335218 C51.1277847,56.6763945 51.391277,56.1520968 51.8383258,55.8196856 L51.8383258,55.8196856 L54.7802121,53.6350663 C55.3139573,53.2398858 56.0245604,53.1784828 56.6181705,53.4762489 C57.2117807,53.774015 57.587507,54.3803415 57.5899778,55.0444981 C58.8785129,54.3872627 59.6911897,53.0644018 59.6951,51.6178171 L59.6951,51.6178171 L59.6951,51.3447397 C59.6951,50.3717301 60.483799,49.58295 61.4567086,49.58295 Z M24.3865786,16.4170023 C24.9801887,16.1192362 25.6907919,16.1806391 26.224537,16.5758197 L26.224537,16.5758197 L29.1488073,18.7340121 C29.595856,19.0664233 29.8593484,19.590721 29.8593484,20.1478483 C29.8593484,20.7049757 29.595856,21.2292734 29.1488073,21.5616846 L29.1488073,21.5616846 L26.215729,23.7463038 C25.6858018,24.1388271 24.9810441,24.2024771 24.3893769,23.9112505 C23.7977097,23.6200238 23.4182274,23.0226961 23.4059633,22.3632989 C22.1174282,23.0205342 21.3047514,24.3433952 21.3008411,25.7899799 L21.3008411,25.7899799 L21.3008411,26.0630573 L21.3096491,26.0542483 C21.3096491,27.0272579 20.5209501,27.8160381 19.5480405,27.8160381 C18.575131,27.8160381 17.786432,27.0272579 17.786432,26.0542483 L17.786432,26.0542483 L17.786432,25.7811709 C17.792897,22.3817822 20.1144695,19.4241073 23.4147714,18.6106868 L23.4147714,18.6106868 L23.4147714,17.9852514 C23.4172422,17.3210948 23.7929684,16.7147684 24.3865786,16.4170023 Z" id="Path-10" fill="#09CD0A" fill-rule="nonzero"></path>
                    </g>
                </g>
            </g>
        </g>
    </g>
</svg>