<?xml version="1.0" encoding="UTF-8"?>
<svg width="53px" height="45px" viewBox="0 0 53 45" version="1.1" xmlns="http://www.w3.org/2000/svg" xmlns:xlink="http://www.w3.org/1999/xlink">
    <!-- Generator: Sketch 64 (93537) - https://sketch.com -->
    <title>ic</title>
    <desc>Created with Sketch.</desc>
    <g id="Page-1" stroke="none" stroke-width="1" fill="none" fill-rule="evenodd">
        <g id="lkpay---1440" transform="translate(-180.000000, -2947.000000)">
            <g id="4_Features" transform="translate(167.000000, 2642.000000)">
                <g id="Point" transform="translate(0.000000, 288.000000)">
                    <g id="ic">
                        <rect id="Rectangle" x="0" y="0" width="79.085494" height="79.085494" rx="19.237012"></rect>
                        <path d="M46.9957741,19.1719402 C47.6235703,19.1667906 48.1916965,19.5332457 48.4314475,20.0980388 C48.6711986,20.6628318 48.5345193,21.3127568 48.0860544,21.7404204 L48.0860544,21.7404204 L47.5088472,22.3022635 C47.219416,22.5830165 46.8271762,22.7402279 46.4185669,22.7392526 L46.4185669,22.7392526 L19.3906093,22.7392526 C18.3786006,22.7392526 17.5582054,23.5378104 17.5582054,24.5228814 L17.5582054,24.5228814 L17.5582054,56.6282002 C17.5582054,57.6132712 18.3786006,58.411829 19.3906093,58.411829 L19.3906093,58.411829 L42.1582278,58.411829 C44.8025395,58.4069216 46.9449224,56.3215648 46.949964,53.7476396 L46.949964,53.7476396 L46.949964,49.5739482 C46.949964,46.6187352 49.4111495,44.2230617 52.4471757,44.2230617 L52.4471757,44.2230617 L59.8684116,44.2230617 C60.7893395,44.2230617 61.5358991,43.4963741 61.5358991,42.5999595 L61.5358991,42.5999595 L61.5358991,35.2246543 C61.5328389,33.7710771 62.1227031,32.3757643 63.1759006,31.3452616 L63.1759006,31.3452616 L63.3224929,31.2025713 C63.636326,30.9184695 64.092046,30.8396897 64.4871879,31.0012318 C64.8823299,31.1627739 65.14359,31.5346698 65.1548968,31.9516954 L65.1548968,31.9516954 L65.1548968,46.0156087 C65.1665374,46.1312677 65.1665374,46.2477573 65.1548968,46.3634163 L65.1548968,46.3634163 L65.1160182,46.5133291 C65.0856874,46.6120373 65.0465984,46.7080953 64.9991425,46.8004054 L64.9991425,46.8004054 L64.9441704,46.898505 C64.8667141,47.0349009 64.7712268,47.1608273 64.6601478,47.273067 L64.6601478,47.273067 L50.0833747,61.5420976 L49.9938332,61.6225062 C49.9323581,61.6741366 49.8673914,61.7217612 49.7993521,61.7650512 L49.7993521,61.7650512 L49.6344357,61.8453145 L49.4786814,61.9255778 L49.286279,61.9790866 L49.1396867,61.9790866 C49.0330018,61.9882081 48.9257009,61.9882081 48.819016,61.9790866 L48.819016,61.9790866 L19.3906093,61.9790866 C16.3545831,61.9790866 13.8933976,59.5834132 13.8933976,56.6282002 L13.8933976,56.6282002 L13.8933976,24.5228814 C13.8933976,21.5676684 16.3545831,19.1719402 19.3906093,19.1719402 L19.3906093,19.1719402 Z M34.0498405,51.2773137 C35.0618493,51.2773137 35.8822444,52.0758715 35.8822444,53.0609425 C35.8822444,54.0460135 35.0618493,54.8445714 34.0498405,54.8445714 L34.0498405,54.8445714 L23.0554171,54.8445714 C22.0434084,54.8445714 21.2230132,54.0460135 21.2230132,53.0609425 C21.2230132,52.0758715 22.0434084,51.2773137 23.0554171,51.2773137 L23.0554171,51.2773137 Z M41.3702941,51.2773137 C42.3823029,51.2773137 43.202698,52.0758715 43.202698,53.0609425 C43.202698,54.0460135 42.3823029,54.8445714 41.3702941,54.8445714 C40.3582854,54.8445714 39.5378902,54.0460135 39.5378902,53.0609425 C39.5378902,52.0758715 40.3582854,51.2773137 41.3702941,51.2773137 Z M41.3794562,44.1427984 C42.3914649,44.1427984 43.2118601,44.9413562 43.2118601,45.9264272 C43.2118601,46.9114982 42.3914649,47.7100561 41.3794562,47.7100561 L41.3794562,47.7100561 L23.0554171,47.7100561 C22.0434084,47.7100561 21.2230132,46.9114982 21.2230132,45.9264272 C21.2230132,44.9413562 22.0434084,44.1427984 23.0554171,44.1427984 L23.0554171,44.1427984 Z M32.2174366,26.1994925 C33.2294454,26.1994925 34.0498405,26.9980503 34.0498405,27.9831213 C34.0498405,28.9681923 33.2294454,29.7667501 32.2174366,29.7667501 C30.9160229,29.7743964 29.716397,30.4532883 29.0657019,31.5503789 L29.0657019,31.5503789 L30.3850327,31.5503789 C31.3970415,31.5503789 32.2174366,32.3489368 32.2174366,33.3340078 C32.2174366,34.3190788 31.3970415,35.1176366 30.3850327,35.1176366 L30.3850327,35.1176366 L29.0657019,35.1176366 C29.716397,36.2147272 30.9160229,36.8936191 32.2174366,36.9012654 C33.2294454,36.9012654 34.0498405,37.6998232 34.0498405,38.6848942 C34.0498405,39.6699652 33.2294454,40.468523 32.2174366,40.468523 C28.8771801,40.4660978 25.961097,38.2657393 25.1260335,35.1176366 L25.1260335,35.1176366 L24.887821,35.1176366 C23.8758123,35.1176366 23.0554171,34.3190788 23.0554171,33.3340078 C23.0554171,32.3489368 23.8758123,31.5503789 24.887821,31.5503789 L24.887821,31.5503789 L25.1260335,31.5503789 C25.961097,28.4022762 28.8771801,26.2019177 32.2174366,26.1994925 Z" id="Path-8" fill="#6B7C89" fill-rule="nonzero"></path>
                        <path d="M45.2137613,32.2010234 C45.6693744,32.2010234 46.1062235,32.377667 46.4277289,32.6919014 L46.4277289,32.6919014 L49.1763348,35.3673446 C49.4991622,35.6802921 49.6806363,36.1055132 49.6806363,36.5489987 C49.6806363,36.9924842 49.4991622,37.4177053 49.1763348,37.7306528 L49.1763348,37.7306528 L47.7928698,39.0772926 C47.121592,39.7256273 46.218831,40.0962921 45.2733145,40.1117973 C44.5496316,40.1194894 43.8582678,40.4046967 43.3492904,40.9055121 L43.3492904,40.9055121 L43.2576702,40.9768573 C42.8766491,41.3335283 42.3559455,41.5126526 41.829295,41.4682245 C41.3026445,41.4237964 40.8213642,41.160145 40.5090643,40.7449855 C39.9953593,39.9991565 40.107499,39.0017083 40.7747629,38.3816773 C41.2731042,37.9120103 41.5653275,37.2728085 41.5901826,36.5980485 C41.5947073,35.5941568 42.0063057,34.6326148 42.735435,33.9226053 L42.735435,33.9226053 L43.9997937,32.6919014 C44.3212991,32.377667 44.7581483,32.2010234 45.2137613,32.2010234 Z M62.0856203,17.629156 C62.4982663,17.2229224 63.0858524,17.0336676 63.6659903,17.1201366 C64.2461283,17.2066057 64.748611,17.5583343 65.0174665,18.0661451 C65.3610076,18.7926903 65.1874491,19.6517616 64.5868516,20.1975815 C64.4079193,20.3771538 64.3264319,20.6283286 64.3669631,20.8753604 C64.5128576,22.0320038 64.1040241,23.1896797 63.2583588,24.0145472 L63.2583588,24.0145472 L54.2154455,32.8167554 C53.8939401,33.1309898 53.457091,33.3076334 53.0014779,33.3076334 C52.5458649,33.3076334 52.1090157,33.1309898 51.7875103,32.8167554 L51.7875103,32.8167554 L49.0389045,30.1413122 C48.716077,29.8283646 48.5346029,29.4031436 48.5346029,28.9596581 C48.5346029,28.5161726 48.716077,28.0909515 49.0389045,27.778004 L49.0389045,27.778004 L58.200924,18.8598599 C59.1326755,17.9710805 60.4795715,17.6314317 61.7374635,17.9680455 L61.7374635,17.9680455 Z" id="Path-9" fill="#09CD0A" fill-rule="nonzero"></path>
                    </g>
                </g>
            </g>
        </g>
    </g>
</svg>