<?xml version="1.0" encoding="UTF-8"?>
<svg width="52px" height="50px" viewBox="0 0 52 50" version="1.1" xmlns="http://www.w3.org/2000/svg" xmlns:xlink="http://www.w3.org/1999/xlink">
    <!-- Generator: Sketch 64 (93537) - https://sketch.com -->
    <title>ic</title>
    <desc>Created with Sketch.</desc>
    <g id="Page-1" stroke="none" stroke-width="1" fill="none" fill-rule="evenodd">
        <g id="lkpay---1440" transform="translate(-182.000000, -3139.000000)">
            <g id="4_Features" transform="translate(167.000000, 2642.000000)">
                <g id="Point" transform="translate(2.000000, 483.000000)">
                    <g id="ic">
                        <rect id="Rectangle" x="0" y="0" width="78.144" height="78.144" rx="19.008"></rect>
                        <path d="M35.5318099,41.2263298 C35.9007792,40.9113075 36.3910076,40.7767577 36.869309,40.8592351 C37.6819708,41.0226204 38.2557195,41.751126 38.223405,42.5785709 L38.223405,42.5785709 L38.223405,55.5265548 C38.223405,56.4266145 38.953826,57.156257 39.854846,57.156257 L39.854846,57.156257 L42.1572554,57.1563385 C42.4601092,58.3120456 42.9153002,59.4061818 43.5001052,60.416048 L15.3832314,60.4158348 C14.8979076,60.4227278 14.4346352,60.2135594 14.1192768,59.8449834 C13.8039184,59.4764073 13.6692251,58.9867014 13.7517904,58.5089098 C13.9153501,57.6971141 14.6446329,57.123977 15.4729606,57.156257 L15.5953187,57.156257 C16.3792061,57.156257 17.0146724,56.521468 17.0146724,55.7384161 L17.0146724,55.7384161 L17.0146724,42.4889373 C17.0075984,42.0041307 17.21699,41.5413521 17.5859593,41.2263298 C17.9549286,40.9113075 18.4451569,40.7767577 18.9234583,40.8592351 C19.7361201,41.0226204 20.3098688,41.751126 20.2775543,42.5785709 L20.2775543,53.8968526 C20.2775543,55.696972 21.7383963,57.156257 23.5404363,57.156257 L23.5404363,57.156257 L31.6976411,57.156257 C33.499681,57.156257 34.9605231,55.696972 34.9605231,53.8968526 L34.9605231,53.8968526 L34.9605231,42.4889373 C34.9534491,42.0041307 35.1628406,41.5413521 35.5318099,41.2263298 Z M30.0662001,47.3780439 C30.9672201,47.3780439 31.6976411,48.1076864 31.6976411,49.007746 C31.6976411,49.9078057 30.9672201,50.6374482 30.0662001,50.6374482 C29.1651802,50.6374482 28.4347592,49.9078057 28.4347592,49.007746 C28.4347592,48.1076864 29.1651802,47.3780439 30.0662001,47.3780439 Z M46.5029679,14.784 C47.338721,14.784 48.1400079,15.1167479 48.7294416,15.7086122 C49.3188753,16.3004764 49.6478334,17.1026227 49.6434918,17.9374737 L49.6434918,17.9374737 L49.64898,18.133189 C49.7131212,19.1707893 50.3304829,20.1013861 51.2749328,20.5612943 L51.2749328,20.5612943 L56.3079282,22.932511 C58.2042244,23.8260592 59.4190881,25.7272114 59.4321376,27.8216175 L59.4321376,27.8216175 L59.4321376,32.7107241 C59.4385911,32.9832291 59.4222196,33.255796 59.3831944,33.5255752 L59.3831944,33.5255752 L59.3831944,33.5826148 C59.3404516,33.7980795 59.2832215,34.0104219 59.2118931,34.2181986 C58.666799,36.0468909 57.0314047,37.3371033 55.1242771,37.4430434 C53.2171496,37.5489835 51.4486338,36.4478568 50.7039284,34.6908123 C50.6407675,34.5443912 50.4964606,34.4495407 50.3368542,34.4495407 C50.1772478,34.4495407 50.0329409,34.5443912 49.96978,34.6908123 C49.2560045,36.3817039 47.5976963,37.4809703 45.7606623,37.4809703 C43.9236283,37.4809703 42.2653201,36.3817039 41.5515446,34.6908123 C41.4844135,34.5539806 41.3451709,34.4672486 41.1926276,34.4672486 C41.0400843,34.4672486 40.9008416,34.5539806 40.8337105,34.6908123 C40.1263319,36.3642346 38.4927275,37.4591714 36.6743969,37.4786264 C34.8560663,37.4980815 33.199359,36.438349 32.4562612,34.7804459 C32.3886427,34.6148591 32.2274255,34.506624 32.0484009,34.506624 C31.8693763,34.506624 31.7081592,34.6148591 31.6405407,34.7804459 C30.9042406,36.4211107 29.2721162,37.4769271 27.472209,37.4769271 C25.6723018,37.4769271 24.0401774,36.4211107 23.3038773,34.7804459 C23.2362588,34.6148591 23.0750416,34.506624 22.8960171,34.506624 C22.7169925,34.506624 22.5557753,34.6148591 22.4881568,34.7804459 C21.7176506,36.505156 19.9631397,37.5774742 18.075109,37.477603 C16.5455596,37.3605188 15.175054,36.4895862 14.4206812,35.1552774 C13.9901495,34.4296117 13.7593847,33.6031173 13.7516651,32.7596152 L13.7516651,32.7596152 L13.7516651,27.8705086 C13.7377109,25.8020609 14.9106922,23.90829 16.7699562,22.9976991 L16.7699562,22.9976991 L21.9089953,20.4879577 C22.8940615,20.0083843 23.5249924,19.0157272 23.5404363,17.9211767 C23.5404363,16.1885619 24.9464967,14.784 26.6809601,14.784 L26.6809601,14.784 Z" id="Path-2" fill="#6B7C89" fill-rule="nonzero"></path>
                        <path d="M54.8377916,44.224 C60.12769,44.224 64.416,48.5077395 64.416,53.792 C64.416,59.0762605 60.12769,63.36 54.8377916,63.36 C49.5478932,63.36 45.2595832,59.0762605 45.2595832,53.792 C45.2595832,48.5077395 49.5478932,44.224 54.8377916,44.224 Z M54.8377916,48.64 C54.0239611,48.64 53.3642211,49.29974 53.3642211,50.1135705 L53.3642211,50.1135705 L53.3632948,52.32 L51.1522948,52.32 C50.3393316,52.32 49.6802948,52.9790368 49.6802948,53.792 C49.6802948,54.6049632 50.3393316,55.264 51.1522948,55.264 L51.1522948,55.264 L53.3632948,55.264 L53.3642211,57.4704295 C53.3642211,58.28426 54.0239611,58.944 54.8377916,58.944 C55.6516221,58.944 56.3113621,58.28426 56.3113621,57.4704295 L56.3113621,57.4704295 L56.3112948,55.264 L58.5232884,55.264 C59.3362516,55.264 59.9952884,54.6049632 59.9952884,53.792 C59.9952884,52.9790368 59.3362516,52.32 58.5232884,52.32 L58.5232884,52.32 L56.3112948,52.32 L56.3113621,50.1135705 C56.3113621,49.29974 55.6516221,48.64 54.8377916,48.64 Z" id="Oval-2" fill="#09CD0A"></path>
                    </g>
                </g>
            </g>
        </g>
    </g>
</svg>