<?xml version="1.0" encoding="UTF-8"?>
<svg width="58px" height="46px" viewBox="0 0 58 46" version="1.1" xmlns="http://www.w3.org/2000/svg" xmlns:xlink="http://www.w3.org/1999/xlink">
    <!-- Generator: Sketch 64 (93537) - https://sketch.com -->
    <title>ic</title>
    <desc>Created with Sketch.</desc>
    <g id="Page-1" stroke="none" stroke-width="1" fill="none" fill-rule="evenodd">
        <g id="lkpay---1440" transform="translate(-178.000000, -2750.000000)">
            <g id="4_Features" transform="translate(167.000000, 2642.000000)">
                <g id="Point" transform="translate(0.000000, 92.000000)">
                    <g id="ic">
                        <rect id="Rectangle" transform="translate(39.441600, 39.441600) rotate(1.000000) translate(-39.441600, -39.441600) " x="1.08" y="1.08" width="76.7232" height="76.7232" rx="18.6624"></rect>
                        <path d="M60.8767457,16.632 L17.7472543,16.632 C14.2682722,16.632 11.448,19.3866845 11.448,22.78476 L11.448,49.35924 C11.448,52.7573155 14.2682722,55.512 17.7472543,55.512 L26.3751429,55.512 C27.4743473,55.512 28.3654286,54.6416416 28.3654286,53.568 C28.3654286,52.4943584 27.4743473,51.624 26.3751429,51.624 L17.7472543,51.624 C16.4666811,51.624 15.4285714,50.6100324 15.4285714,49.35924 L15.4285714,32.184 L63.1954286,32.184 L63.1954286,39.96 C63.1954286,41.0336416 64.0865098,41.904 65.1857143,41.904 C66.2849187,41.904 67.176,41.0336416 67.176,39.96 L67.176,22.78476 C67.176,19.3866845 64.3557278,16.632 60.8767457,16.632 Z M31.3508571,36.0719374 C33.8682312,36.0606503 36.1224617,37.5926894 36.986533,39.9021655 C37.8506043,42.2116416 37.1388688,44.8023588 35.2071628,46.379073 C33.2754568,47.9557872 30.5388115,48.1797381 28.3654286,46.93896 C27.4604181,47.4588993 26.4299539,47.7340093 25.38,47.736 C22.0823867,47.736 19.409143,45.1249246 19.409143,41.904 C19.409143,38.6830754 22.0823867,36.0719374 25.38,36.0719374 C26.4299539,36.0739907 27.4604181,36.3491007 28.3654286,36.86904 C29.2715535,36.3516854 30.3012898,36.0767697 31.3508571,36.0719374 Z M46.7258143,44.42148 C46.8217375,44.5073599 46.9054144,44.605437 46.9746,44.71308 C47.0469982,44.8178687 47.1102467,44.9284182 47.1636771,45.04356 C47.2147578,45.1620995 47.2514951,45.2860586 47.2731429,45.41292 C47.2878571,45.5388713 47.2878571,45.6660487 47.2731429,45.792 C47.2697739,46.5757347 46.7849001,47.2808419 46.0433876,47.5803192 C45.3548403,47.8584054 44.5700712,47.7362294 44.0058511,47.2749587 L43.8797057,47.16252 L43.9195114,47.16252 C43.1478307,46.4042872 43.1478307,45.1797128 43.9195114,44.42148 C44.6957974,43.6677453 45.9495283,43.6677453 46.7258143,44.42148 Z M51.2537143,36.072 C52.3529187,36.072 53.244,36.9423584 53.244,38.016 C53.244,39.0408397 52.432085,39.8804565 51.4022516,39.9546679 L51.2537143,39.96 L45.2828571,39.96 C44.1836527,39.96 43.2925714,39.0896416 43.2925714,38.016 C43.2925714,36.9911603 44.1044864,36.1515435 45.1343198,36.0773321 L45.2828571,36.072 L51.2537143,36.072 Z M58.5022276,36.4877475 C58.9644034,36.8655111 59.2264483,37.4274731 59.2148571,38.016 C59.2126352,38.5307487 59.0014864,39.0236235 58.6277229,39.38652 C58.0586605,39.9390647 57.2055535,40.1037966 56.464041,39.8043192 C55.7225285,39.5048419 55.2376546,38.7997347 55.2342857,38.016 C55.2295239,37.8755998 55.2428978,37.7351732 55.2740914,37.59804 C55.2950952,37.4741732 55.3318688,37.3533565 55.3835571,37.2384 C55.4308221,37.1172957 55.4944081,37.0028876 55.5726343,36.8982 C55.7204545,36.6891188 55.9059035,36.5079826 56.1199629,36.3636 C56.2272465,36.2928855 56.3404281,36.2311079 56.4583114,36.17892 C56.5794841,36.1285067 56.7064591,36.0926055 56.8364657,36.072 C57.4275255,35.9571071 58.0400519,36.1099839 58.5022276,36.4877475 Z M60.8767457,20.52 C62.1573189,20.52 63.1954286,21.5339676 63.1954286,22.78476 L63.1954286,24.408 L15.4285714,24.408 L15.4285714,22.78476 C15.4285714,21.5339676 16.4666811,20.52 17.7472543,20.52 L60.8767457,20.52 Z" id="Shape" fill="#6B7C89" fill-rule="nonzero"></path>
                        <path d="M46.0185403,56.16 C47.2851831,56.16 48.312,57.1868169 48.312,58.4534597 L48.312,59.6985403 C48.312,60.9651831 47.2851831,61.992 46.0185403,61.992 L34.4774597,61.992 C33.2108169,61.992 32.184,60.9651831 32.184,59.6985403 L32.184,58.4534597 C32.184,57.1868169 33.2108169,56.16 34.4774597,56.16 L46.0185403,56.16 Z M66.1785403,56.16 C67.4451831,56.16 68.472,57.1868169 68.472,58.4534597 L68.472,59.6985403 C68.472,60.9651831 67.4451831,61.992 66.1785403,61.992 L54.6374597,61.992 C53.3708169,61.992 52.344,60.9651831 52.344,59.6985403 L52.344,58.4534597 C52.344,57.1868169 53.3708169,56.16 54.6374597,56.16 L66.1785403,56.16 Z M66.1785403,46.44 C67.4451831,46.44 68.472,47.4668169 68.472,48.7334597 L68.472,49.9785403 C68.472,51.2451831 67.4451831,52.272 66.1785403,52.272 L54.6374597,52.272 C53.3708169,52.272 52.344,51.2451831 52.344,49.9785403 L52.344,48.7334597 C52.344,47.4668169 53.3708169,46.44 54.6374597,46.44 L66.1785403,46.44 Z" id="Rectangle-3" fill="#2BBE00" fill-rule="nonzero"></path>
                    </g>
                </g>
            </g>
        </g>
    </g>
</svg>