<?xml version="1.0" encoding="UTF-8"?>
<svg width="15px" height="17px" viewBox="0 0 15 17" version="1.1" xmlns="http://www.w3.org/2000/svg" xmlns:xlink="http://www.w3.org/1999/xlink">
    <!-- Generator: Sketch 64 (93537) - https://sketch.com -->
    <title>logo-googleplay</title>
    <desc>Created with Sketch.</desc>
    <g id="Page-1" stroke="none" stroke-width="1" fill="none" fill-rule="evenodd">
        <g id="lkpay---1440" transform="translate(-1038.000000, -3761.000000)" fill="#212B36" fill-rule="nonzero">
            <g id="5_App-install" transform="translate(-52.000000, 3248.000000)">
                <g id="GooglePlay" transform="translate(1028.000000, 499.000000)">
                    <g id="Group" transform="translate(62.000000, 14.000000)">
                        <path d="M2.27373675e-13,15.4923896 L2.27373675e-13,1.13928213 C2.27373675e-13,0.638417777 0.290376664,0.205468955 0.711763063,0 L9.01435006,8.31338739 L0.708423946,16.63 C0.28884202,16.4239063 2.27373675e-13,15.9919622 2.27373675e-13,15.4923896 Z M11.6483734,10.9507287 L2.57002362,16.1989002 L9.72989914,9.02977631 L11.6483734,10.9507287 Z M14.4702642,7.30959859 C14.7722182,7.54102134 14.967,7.9056747 14.967,8.31583586 C14.967,8.71983362 14.7781207,9.07959003 14.4839243,9.31143494 L12.5555844,10.4262492 L10.4453639,8.31338739 L12.554151,6.20185953 L14.4702642,7.30959859 Z M2.57534429,0.43316834 L11.64694,5.67741387 L9.72989914,7.59691403 L2.57534429,0.43316834 Z" id="logo-googleplay"></path>
                    </g>
                </g>
            </g>
        </g>
    </g>
</svg>