<?xml version="1.0" encoding="UTF-8"?>
<svg width="14px" height="17px" viewBox="0 0 14 17" version="1.1" xmlns="http://www.w3.org/2000/svg" xmlns:xlink="http://www.w3.org/1999/xlink">
    <!-- Generator: Sketch 64 (93537) - https://sketch.com -->
    <title>logo-applestore-white</title>
    <desc>Created with Sketch.</desc>
    <g id="Page-1" stroke="none" stroke-width="1" fill="none" fill-rule="evenodd">
        <g id="lkpay---1024" transform="translate(-559.000000, -3493.000000)" fill="#FFFFFF" fill-rule="nonzero">
            <g id="5_App-install" transform="translate(-61.000000, 3043.000000)">
                <g id="Group-7" transform="translate(552.000000, 437.000000)">
                    <g id="Appstore">
                        <g id="Group-2" transform="translate(68.000000, 13.000000)">
                            <path d="M12.8092762,14.6209465 C12.0919768,15.6049797 11.3499966,16.58296 10.178517,16.603459 C9.02559117,16.623958 8.6559818,15.9628246 7.34038645,15.9628246 C6.02341035,15.9628246 5.61142923,16.58296 4.52287225,16.623958 C3.39192625,16.6636648 2.5319696,15.561157 1.80875892,14.5815625 C0.331262065,12.5786317 -0.79642191,8.91826707 0.720193299,6.44803949 C1.47121745,5.22127057 2.81696491,4.44508443 4.27528661,4.42459349 C5.38593559,4.40541803 6.43513258,5.12703969 7.11351206,5.12703969 C7.79292709,5.12703969 9.06640958,4.26064983 10.4052188,4.38772755 C10.9656305,4.4094452 12.5384767,4.59956949 13.5485812,5.98615805 C13.4687566,6.03537989 11.6711934,7.01645929 11.6931128,9.06038816 C11.7151185,11.5019494 13.9737658,12.3135165 14,12.3245731 C13.9795476,12.3819542 13.638934,13.4831707 12.8092762,14.6209465 Z M7.93843708,1.14828292 C8.56118684,0.508134729 9.61340424,0.0319933874 10.481787,0 C10.5927292,0.889197878 10.1849299,1.77962365 9.58263512,2.42124986 C8.9791269,3.06172397 7.9912213,3.56064194 7.02169049,3.49402505 C6.88994663,2.62407171 7.37861235,1.71678139 7.93843708,1.14828292 Z" id="logo-applestore-white"></path>
                        </g>
                    </g>
                </g>
            </g>
        </g>
    </g>
</svg>