<?xml version="1.0" encoding="UTF-8"?>
<svg width="88px" height="88px" viewBox="0 0 88 88" version="1.1" xmlns="http://www.w3.org/2000/svg" xmlns:xlink="http://www.w3.org/1999/xlink">
    <!-- Generator: Sketch 64 (93537) - https://sketch.com -->
    <title>_3</title>
    <desc>Created with Sketch.</desc>
    <g id="Page-3" stroke="none" stroke-width="1" fill="none" fill-rule="evenodd">
        <g id="Group-7" fill-rule="nonzero">
            <g id="_3">
                <circle id="Oval" fill="#FC0101" cx="44" cy="44" r="44"></circle>
                <path d="M43.1284109,70.8425713 C42.6089488,70.6916237 42.5921231,70.6590297 42.5921231,69.7918155 C42.5921231,68.914182 42.5817071,68.894679 42.0561023,68.7920881 C41.0751337,68.6007987 39.3848122,67.8241531 38.5953367,67.2016611 C35.6868834,64.9093945 34.6904244,61.3245888 35.999896,57.866953 C36.8371781,55.6559043 39.147382,53.6791583 41.6458742,53.0358275 C42.8530559,52.7251158 42.7959017,52.3772684 41.5198145,52.2704028 L40.5300324,52.1873148 L40.5300324,50.5274252 L41.5609442,50.4779999 L42.5921231,50.4285746 L42.5921231,46.2033769 C42.5921231,43.8795849 42.5574032,41.9781791 42.5154724,41.9781791 C42.4730073,41.9781791 41.2289692,42.9680215 39.7504387,44.1777399 C38.2719082,45.3874582 36.8588112,46.5373318 36.6101638,46.733163 C36.3615164,46.9289941 36.1590731,47.1531447 36.1604085,47.2311565 C36.1617439,47.3094356 36.4143974,47.671977 36.7220685,48.0371902 C37.2647661,48.6818567 37.2735796,48.7147179 37.0166529,49.1531339 C36.8713637,49.4015964 36.5476681,49.6767753 36.2979524,49.7641379 C35.8813145,49.9102765 35.7886392,49.8587139 35.1879862,49.1464548 C34.7157966,48.5864792 34.4818383,48.4192346 34.3507042,48.5480076 C34.2187689,48.6781164 34.3138478,49.0385206 34.6968342,49.862187 C35.1546018,50.8461518 35.2347245,51.222853 35.2998909,52.6967964 C35.3615854,54.095934 35.3140459,54.5968664 35.0309458,55.5327417 C34.2521533,58.1055304 32.3879656,59.9810213 29.8304497,60.7646131 C28.9010266,61.0494099 28.4162844,61.0961636 27.1081481,61.0277696 C25.2877608,60.9323921 24.2376196,60.5783999 22.7550829,59.5605053 C22.2342855,59.2027727 21.751947,58.9134342 21.6827744,58.9171745 C21.6136018,58.9209148 21.3048624,59.1410579 20.9963901,59.4063517 C20.4654438,59.863202 20.4101592,59.8760259 19.968149,59.6459977 C19.5135864,59.4095576 19,58.6494762 19,58.2131975 C19,58.0943095 19.2742866,57.7656979 19.6094665,57.4825041 L20.2192001,56.967412 L19.7795937,55.9473801 C17.8475688,51.4649035 19.8153818,46.5699258 24.2090425,44.9284705 C25.0049278,44.6311171 25.5086324,44.5667306 26.9190586,44.5822261 C28.9579137,44.6044007 29.9581118,44.9172496 31.6601846,46.0657874 C33.0070469,46.9741448 33.3403572,46.8226629 32.4363063,45.7125967 C31.8244361,44.9607974 31.8148214,44.9287377 32.0725494,44.4970008 C32.2183726,44.2528129 32.5377951,43.9797714 32.7824363,43.8897371 C33.1894595,43.7401253 33.2858738,43.7935581 33.9092283,44.5111605 L34.5905381,45.295821 L38.1378362,42.4010996 C40.0885564,40.8090697 41.6846002,39.4286336 41.6846002,39.3332561 C41.6846002,39.2381458 40.1256799,37.8945783 38.2203626,36.3476991 L34.7555908,33.5352643 L34.3018294,33.9696728 C33.7190704,34.5280455 33.7292193,34.8553213 34.3432261,35.3119045 C34.9473511,35.7615414 34.9513572,35.8414234 34.4025169,36.497578 L33.9671837,37.0185477 L33.4461192,36.5104019 C32.8232989,35.9028711 32.7554617,35.894589 32.3457677,36.3757513 C31.6772775,37.1612133 31.672203,37.2662087 32.2838062,37.6851218 C32.5986883,37.9007231 32.8566833,38.1606736 32.8572175,38.2621959 C32.8585528,38.4794002 32.2261178,39.3228367 32.0626676,39.3217681 C31.9128382,39.3206994 28.8294504,36.8411509 28.7677559,36.6715018 C28.7410483,36.5982988 29.5016796,36.1069844 30.4586115,35.5796027 C31.4155434,35.0524883 32.198342,34.5635783 32.198342,34.493047 C32.198342,34.4225157 31.9838803,34.211189 31.721612,34.0233728 L31.2448821,33.6816701 L29.637087,34.5980424 C28.7525326,35.1019136 28.0017831,35.4868969 27.9683986,35.4535014 C27.9352813,35.4201059 28.1598918,34.5951036 28.4672958,33.6199552 L29.0265522,31.8467882 L28.6048398,31.5131004 C28.3730182,31.3295588 28.1126194,31.2031902 28.026354,31.2320439 C27.9398215,31.2608976 27.6155918,32.0997924 27.3057841,33.0960467 C26.9959764,34.0925682 26.7128762,34.9370735 26.676821,34.9734078 C26.6100521,35.0401987 23.2895012,32.3578728 23.2895012,32.2371147 C23.2895012,32.0784193 24.0252945,31.188229 24.1564286,31.188229 C24.2362842,31.188229 24.5623835,31.388602 24.8810047,31.633057 L25.4605587,32.077885 L25.9423631,31.5590526 C26.2073021,31.2737215 26.4241675,30.9881232 26.4241675,30.9242711 C26.4241675,30.8604189 26.1490796,30.5692102 25.8130985,30.2769328 L25.2020296,29.7452766 L25.6069162,29.230986 C26.1031426,28.6004791 26.1704457,28.5938 26.7841854,29.1134339 C27.0539318,29.3415919 27.3306221,29.5283395 27.3995276,29.5283395 C27.5587047,29.5283395 28.4064026,28.5769687 28.3965208,28.4091897 C28.3922476,28.3397271 27.7646199,27.7976515 27.001585,27.2042804 C25.4573538,26.0033784 25.3358344,25.7188488 26.0187468,24.9018615 C26.8760594,23.8767535 26.062013,23.3442957 35.8278994,31.3151319 C41.1074498,35.623952 42.4059714,36.6664257 42.4949075,36.6664257 C42.5483227,36.6664257 42.5921231,34.7615468 42.5921231,32.433213 L42.5921231,28.2002675 L40.9423971,28.2002675 L40.9423971,29.8601571 L39.4574568,29.8601571 L39.4574568,28.2002675 L37.8077308,28.2002675 L37.8077308,29.8601571 L36.3227904,29.8601571 L36.3227904,25.3830238 L37.1066573,25.6942698 C37.5377173,25.8652547 38.3672542,26.2002783 38.949746,26.4388557 C39.5322379,26.6774331 40.0709294,26.8721956 40.1459777,26.8721956 C40.2210259,26.8721956 40.2821862,26.5922078 40.281385,26.2497036 L40.2803167,25.6272116 L38.4436378,24.8975869 L36.6066918,24.167695 L38.4447061,23.4276509 L40.2824533,22.6876068 L40.2824533,22.04107 C40.2824533,21.6852077 40.2469322,21.3942661 40.2033989,21.3942661 C40.1598656,21.3942661 39.3615766,21.7012375 38.4300169,22.0763357 L36.5292399,22.841226 C36.3703299,22.904811 36.3230575,22.4054816 36.3230575,20.6649086 L36.3230575,18.4063046 L37.8079979,18.4063046 L37.8079979,20.0661942 L39.4574568,20.0661942 L39.4574568,18.4063046 L40.9423971,18.4063046 L40.9423971,20.0661942 L42.5921231,20.0661942 L42.5921231,16.2609782 L43.227763,16.0889246 C43.67645,15.967365 44.0167043,15.9703038 44.382865,16.0985425 L44.9020599,16.2807483 L44.9020599,26.4912198 C44.9020599,35.1259584 44.9373139,36.6880659 45.1306766,36.6135272 C45.333387,36.5352482 49.8392195,32.8991469 57.6089828,26.5433168 C59.0175395,25.3913058 60.2618447,24.3915784 60.3740165,24.3215814 C60.6880974,24.1265517 61.1936715,24.3549769 61.5390002,24.8486959 C62.2248504,25.8286532 62.1903976,25.9189546 60.6640606,27.140161 C59.8892743,27.7599813 59.2552368,28.329842 59.2552368,28.4065181 C59.2552368,28.6191806 59.9576456,29.5283395 60.1221642,29.5283395 C60.2020198,29.5283395 60.5302557,29.3263635 60.8518147,29.0795041 L61.4364432,28.6309358 L61.9038255,29.2040025 L62.371742,29.7773363 L61.7216799,30.3581507 L61.0716179,30.9392322 L61.5873409,31.5056198 C61.9404149,31.8935418 62.166895,32.0244522 62.3057743,31.9207926 C63.4218832,31.0872411 63.3684681,31.1008664 63.7933854,31.535275 C64.0083812,31.7554181 64.2073525,32.0215134 64.2356626,32.1265088 C64.2920155,32.3364997 61.0814997,35.0332525 60.905764,34.9237153 C60.845672,34.8863123 60.5494851,34.0305862 60.2474226,33.0220423 C59.9453601,32.0134985 59.6171242,31.1906335 59.5180392,31.1938395 C59.4189541,31.1967783 59.1654994,31.3434513 58.9553109,31.5200467 L58.5725916,31.8409105 L59.1419967,33.6725865 C59.4552764,34.6797946 59.6756138,35.5042625 59.6318134,35.5042625 C59.588013,35.5042625 58.810823,35.0856166 57.9046355,34.5739977 L56.2573132,33.6434657 L55.7776454,34.1056593 L55.2979776,34.5681201 L56.3280882,35.1409195 C56.8942885,35.456173 57.7171484,35.917298 58.1564878,36.1660276 L58.9547767,36.6183361 L57.2329403,38.0329692 L55.5108369,39.4476023 L55.0493302,38.8657192 L54.5878236,38.283569 L55.218122,37.7511113 L55.8484204,37.2186535 L55.387715,36.6105884 C55.1339932,36.2760991 54.8904203,36.0022561 54.8460857,36.0022561 C54.8020182,36.0022561 54.4849995,36.2258723 54.1420744,36.499181 L53.5184529,36.996106 L53.0713684,36.406208 L52.6240167,35.81631 L53.2473712,35.2739672 L53.8707256,34.7318916 L53.3907908,34.1270324 C52.9805627,33.6095358 52.8699934,33.5512941 52.6269546,33.7246835 C51.9274836,34.2234786 45.7444164,39.248298 45.7364041,39.3244397 C45.7310626,39.3714606 46.1538433,39.7449557 46.6754419,40.1545181 C47.1973076,40.5640804 48.8331457,41.8889464 50.3106079,43.0986647 C51.7880701,44.308383 53.0273009,45.2982254 53.0638902,45.2982254 C53.1004796,45.2982254 53.370493,44.9621332 53.663742,44.551235 C54.2943075,43.6674567 54.6396363,43.6166956 55.3257535,44.3070472 L55.8254519,44.8098497 L55.3917212,45.344712 C54.8284587,46.0382695 54.5523026,46.5977108 54.6994612,46.7457197 C54.7638264,46.8103733 54.9112522,46.7914047 55.027163,46.7035078 C56.1240425,45.8691548 57.4532777,45.1050659 58.1551524,44.9054944 C62.2285894,43.7476059 65.9318597,45.3008971 67.7111173,48.9132207 L68.4116566,50.336403 L68.4116566,52.4237549 C68.4116566,54.5803022 68.3991041,54.6350708 67.4082536,56.841845 C67.3655215,56.9366882 67.6301934,57.2353775 67.9963541,57.5057474 C68.5489335,57.9139739 68.6453478,58.0678603 68.5657593,58.4122346 C68.4621339,58.8597342 67.9314547,59.5073396 67.4579297,59.7640842 C67.2285117,59.8885826 67.0172549,59.7972125 66.4943209,59.3465069 L65.8244953,58.7694328 L65.0721433,59.3473084 C63.530583,60.531379 61.937477,61.0710502 60.0041168,61.0643711 C57.7168813,61.0563562 56.0594102,60.3785612 54.5531038,58.8359566 C53.3833127,57.637192 52.7570204,56.5367438 52.4154307,55.0780287 C51.978495,53.2132243 52.1422123,51.5632198 52.9455758,49.7315439 C53.2585884,49.017949 53.3194816,48.7216642 53.1814035,48.5827389 C53.0433254,48.4438137 52.9143279,48.4991166 52.6803697,48.7972716 C51.6708239,50.0844674 51.7821944,50.015272 51.2074478,49.7163155 C50.9206086,49.5669709 50.604391,49.2912577 50.5045048,49.1034414 C50.3154152,48.7481134 50.3562778,48.654606 51.1647157,47.6011786 L51.4990943,47.165167 L48.3684341,44.6142857 C46.6465977,43.2111407 45.1608562,42.0374895 45.0671126,42.0059642 C44.9514689,41.9672254 44.9106063,43.3091899 44.9402517,46.1550202 L44.9843192,50.3612493 L45.9703623,50.4120104 C47.0381306,50.4673134 47.2066553,50.5963535 47.2066553,51.3572364 C47.2066553,52.1183865 47.0381306,52.2471595 45.9703623,52.3024625 C44.5642093,52.3751311 44.6659651,52.7130934 46.230761,53.167005 C48.3104787,53.7707955 49.79168,54.8629617 50.9700175,56.6623108 C52.3935305,58.8356895 52.5484343,61.9575001 51.3554076,64.4287666 C50.5429637,66.1118994 48.3743098,67.9473157 46.5811642,68.4696212 C44.8587937,68.9710879 44.9020599,68.9358223 44.9020599,69.8465842 C44.9020599,70.6141462 44.8702779,70.6747924 44.3823308,70.8460445 C43.7952986,71.0517607 43.849515,71.0520279 43.1284109,70.8425713 L43.1284109,70.8425713 Z M42.219861,66.4793998 C42.2656778,65.7801908 42.315139,65.7002339 42.7925704,65.5552087 C43.113548,65.4578819 43.5170478,65.4578819 43.8380254,65.5552087 C44.3206632,65.7018882 44.3667403,65.7793637 44.4411925,66.5651467 C44.5153844,67.3514811 44.5520899,67.4126895 44.92357,67.3713325 C45.7063596,67.2842071 47.2870375,66.3079061 48.0474394,65.4421662 C49.2274811,64.097788 49.652067,62.9458576 49.6557377,61.077624 C49.6575338,60.2295297 49.564078,59.2446817 49.4482345,58.8890115 C48.6599781,56.4682483 45.857607,55.7861335 44.6452853,57.7194355 C43.9228905,58.8713658 44.3222251,60.6519226 45.4408307,61.2681419 C45.9333608,61.5394438 47.1225137,61.5355839 47.697566,61.2609734 C47.9466946,61.1418652 47.9787143,61.2345049 47.9787143,62.0704677 C47.9787143,62.9748075 47.9578885,63.0219545 47.4723871,63.202271 C46.3170761,63.631281 44.5770808,63.2160567 43.8908708,62.3470082 C43.6742826,62.0729492 43.4662849,61.8485185 43.4287985,61.8485185 C43.3910517,61.8485185 43.1073003,62.1027262 42.7977769,62.4137309 C41.9014867,63.3142106 40.5746231,63.6070182 39.2735315,63.1917939 L38.6518815,62.9932803 L38.6518815,62.0599906 C38.6518815,61.2300935 38.6831202,61.1426923 38.9332901,61.2720019 C39.088182,61.3519588 39.662193,61.41813 40.2093907,61.4186814 C41.0934458,61.42006 41.2595315,61.3635387 41.7005177,60.9132988 C42.6881811,59.9050151 42.6871398,58.1983495 41.6989558,57.21488 C40.2099114,55.7329208 37.7654836,56.9587423 37.2000632,59.4710423 C36.6177219,62.0561307 37.5915882,64.8769539 39.565353,66.3238975 C40.3648032,66.9097884 41.8874293,67.5436533 42.0589818,67.3616825 C42.1196369,67.2974413 42.1920065,66.9004141 42.219861,66.4793998 L42.219861,66.4793998 Z M29.5194648,58.9772763 C31.3132792,58.3608165 32.9092304,56.883744 33.2946287,55.4835639 C33.6082744,54.3449762 33.3636633,53.4193617 32.5352472,52.6094821 C31.8951817,51.9832457 31.7334666,51.9079388 31.0319765,51.9079388 C29.6822671,51.9079388 28.6747414,52.7098913 28.4692681,53.9478313 C28.3284808,54.7970819 28.9332137,55.9031687 29.7559222,56.3013706 L30.4071311,56.6166027 L29.7167844,57.1352956 C29.3370937,57.4206691 28.92506,57.6542527 28.8013955,57.6542527 C28.6774593,57.6542527 28.2420516,57.353025 27.8332794,56.9844175 C26.91327,56.1549845 26.4841135,55.1445507 26.6249008,54.1388731 L26.7265503,53.4148698 L25.8965034,53.3033627 C24.6237106,53.1321385 23.368856,52.1095499 22.8758288,50.8417514 C22.7157445,50.4300736 22.7567848,50.3402338 23.3332515,49.841887 C23.6816863,49.5409235 24.0113676,49.2914859 24.0659974,49.2877866 C24.1206272,49.2840873 24.252989,49.5662901 24.3595307,49.9153442 C24.6215363,50.7693511 25.6758099,51.4973179 26.6507208,51.4973179 C27.9737948,51.4973179 29.0875904,50.4023289 29.0875904,49.1015011 C29.0875904,47.6759544 27.8487714,46.6528373 26.1264378,46.6557377 C23.0168878,46.6607643 20.3229049,50.2044171 20.8757258,53.5620485 C21.0646199,54.7088275 21.4337108,55.6838539 21.6788654,55.6838539 C21.7685561,55.6838539 22.0713303,55.4957187 22.3510022,55.265306 C22.8404961,54.8626122 22.8793621,54.8565348 23.3775532,55.1086147 C23.6623892,55.2526227 24.0233264,55.6325923 24.1796057,55.9531091 L24.4638981,56.5360111 L23.837422,57.0972458 C23.493064,57.405872 23.2112177,57.6867536 23.2112177,57.7213683 C23.2112177,57.90554 25.0425391,58.8937781 25.7095119,59.0694942 C26.8866346,59.3797059 28.4594836,59.341656 29.5194648,58.977012 L29.5194648,58.9772763 Z M62.7514192,58.7591695 C63.3294042,58.5063568 63.939774,58.1518896 64.1077354,57.971347 C64.4049613,57.652353 64.3983746,57.6311749 63.86238,57.1967607 C63.2240167,56.6792227 63.1694017,56.2532797 63.6636805,55.643882 C64.3154916,54.8399113 64.6212254,54.7912018 65.3668974,55.3725386 L66.0327054,55.8916649 L66.4097953,55.0993421 C66.7199202,54.4475883 66.7868852,54.0147625 66.7868852,52.6620161 C66.7868852,51.1901434 66.736387,50.9174763 66.30825,50.0714142 C65.5891993,48.6503687 64.3330562,47.4029831 63.2113921,46.9958356 C61.2117726,46.2699587 59.5022434,46.7247568 58.7576691,48.1810108 C58.2301824,49.2134395 58.3578001,49.9120496 59.2288943,50.7567881 C60.3404039,51.8355437 61.7724674,51.8016589 62.7942329,50.6723407 C63.0788343,50.3581117 63.3115652,49.918403 63.3115652,49.6955043 C63.3115652,49.1697598 63.4408296,49.184055 64.205164,49.7953057 C64.9275081,50.3729363 64.9615395,50.5484492 64.51474,51.3937172 C63.9460862,52.4695608 62.7585549,53.2369995 61.5927048,53.2822675 L60.91043,53.3087401 L61.0182876,54.0054971 C61.181309,55.0612216 60.8173925,55.9949078 59.8911345,56.8973564 C59.4500985,57.3272703 58.9667976,57.6788255 58.8169497,57.6788255 C58.6671017,57.6788255 58.2425325,57.44322 57.873127,57.1551988 L57.2018301,56.6318369 L57.6711342,56.4359402 C58.4955724,56.0923267 58.9445674,55.4670455 59.0367816,54.5328299 C59.1438158,53.4503681 58.7469657,52.6768407 57.8588558,52.237132 C56.5475489,51.5880255 55.3073237,51.9369335 54.5665918,53.1634059 C53.5475707,54.8505003 54.5226803,57.1414331 56.8143112,58.4446758 C58.0158394,59.1276671 58.8616845,59.3254169 60.3445206,59.2698246 C61.3874185,59.2306453 61.9437222,59.1125778 62.7514192,58.7591695 L62.7514192,58.7591695 Z" id="Shape" fill="#FFFFFF"></path>
            </g>
        </g>
    </g>
</svg>