<?xml version="1.0" encoding="UTF-8"?>
<svg width="88px" height="88px" viewBox="0 0 88 88" version="1.1" xmlns="http://www.w3.org/2000/svg" xmlns:xlink="http://www.w3.org/1999/xlink">
    <!-- Generator: Sketch 64 (93537) - https://sketch.com -->
    <title>credit-agricole-morbihan</title>
    <desc>Created with Sketch.</desc>
    <g id="Page-3" stroke="none" stroke-width="1" fill="none" fill-rule="evenodd">
        <g id="Group-7" transform="translate(-226.000000, -210.000000)" fill-rule="nonzero">
            <g id="credit-agricole-morbihan" transform="translate(226.000000, 210.000000)">
                <circle id="Oval" fill="#E5E5E5" cx="44" cy="44" r="44"></circle>
                <g transform="translate(15.000000, 22.000000)" id="Group-6">
                    <g transform="translate(0.000000, 0.741071)">
                        <polygon id="Path" fill="#376F51" points="57.2748092 42 57.2748092 36.8666667 0 36.8666667 0 42"></polygon>
                        <path d="M61,0 L61,5.47585596 C61,5.47585596 52.8512585,10.0144347 50.0222802,11.5258718 C49.6886724,11.703939 48.0615227,11.9301114 47.4069178,10.6906243 C46.8570192,9.64821379 46.3762877,8.42385663 46.0992366,7.42295628 C47.0851564,7.24566502 47.9614022,7.05595949 48.4398407,6.79797548 C51.5821734,5.10032436 61,0 61,0 Z" id="Path" fill="#CC2229"></path>
                        <path d="M40.832562,3.73333333 L32.3800676,3.73333333 C32.3800676,3.73333333 25.4626519,16.7099935 20.7480401,25.508472 C24.1348508,25.2282094 29.75353,23.6158341 30.8472833,21.7093562 C31.6748644,20.2680604 36.263274,10.2374258 36.263274,10.2374258 C36.263274,10.2374258 38.1111816,14.766224 40.1598655,19.793267 C42.3498859,18.6591541 44.5242148,17.4946779 46.6822297,16.3001718 L40.832562,3.73333333 L40.832562,3.73333333 Z M45.2305208,32.2401577 C45.5376131,32.9971359 46.1284693,33.7352762 47.222605,33.7352762 L54.7989496,33.7352762 L49.2261621,21.7635633 C46.9204843,23.0653045 44.6675821,24.3024584 42.4693676,25.4554182 C43.6663772,28.3933703 44.7107968,30.9584078 45.2305208,32.2401577 L45.2305208,32.2401577 Z" id="Shape" fill="#376F51"></path>
                        <path d="M47.0178276,15.8945371 C44.8500727,17.1022552 42.6659301,18.2796114 40.4660253,19.4262684 C30.9665841,24.3631514 21.6861126,28.2190587 14.1839052,28.2190587 C11.0526392,28.2190587 4.90420203,28.3010745 4.90420203,23.9802815 C4.90420203,17.579553 19.8571399,7.65020285 27.168037,8.82252307 C26.2641149,4.49900919 25.5833882,2.8 22.5996386,2.8 C16.8449626,2.8 0.465648855,10.3038601 0.465648855,21.4789948 C0.465648855,27.1878367 4.71404417,34.0666667 15.3190899,34.0666667 C23.6022891,34.0666667 32.6495772,30.4976201 42.7855669,25.1502696 C44.9937029,23.9849459 47.2567734,22.7341082 49.5728577,21.4175802 C53.2411755,19.3325916 57.0401068,17.090568 61,14.7443728 L61,7.96815972 C56.5022866,10.4947119 51.7763838,13.2498199 47.0178276,15.8945371 Z" id="Path" fill="#139496"></path>
                    </g>
                </g>
            </g>
        </g>
    </g>
</svg>