<?xml version="1.0" encoding="UTF-8"?>
<svg width="88px" height="88px" viewBox="0 0 88 88" version="1.1" xmlns="http://www.w3.org/2000/svg" xmlns:xlink="http://www.w3.org/1999/xlink">
    <!-- Generator: Sketch 64 (93537) - https://sketch.com -->
    <title>_6</title>
    <desc>Created with Sketch.</desc>
    <g id="Page-3" stroke="none" stroke-width="1" fill="none" fill-rule="evenodd">
        <g id="Group-7" transform="translate(-230.000000, 0.000000)">
            <g id="_6" transform="translate(230.000000, 0.000000)">
                <circle id="Oval" fill="#FFFFFF" fill-rule="nonzero" cx="44" cy="44" r="44"></circle>
                <path d="M43.968654,11 C44.6508912,11 45.3300553,11.0214242 46,11.0642726 C27.9022741,19.6094675 12.9791026,43.3076923 25.4499078,71 C16.7283344,65.0930422 11,55.127729 11,43.8310549 C11,25.7000612 25.760295,11 43.968654,11 Z M54.7178511,13 C65.0822362,16.4964963 73.1413864,25.0847073 76,35.8276999 C60.9487115,21.1368508 35.5941848,25.4093157 27,43 C29.360267,29.8487222 38.6056654,18.2617477 54.7178511,13 Z M77,44.6862814 C76.6927972,62.5845252 62.0607257,77 44.052495,77 C40.4029252,77 36.8915967,76.4082972 33.6106704,75.3138003 C10.6902662,47.2033178 52.8231362,10.7507453 77,44.6862814 L77,44.6862814 Z" id="Fill-7" fill="#7BB53F"></path>
            </g>
        </g>
    </g>
</svg>