<?xml version="1.0" encoding="UTF-8"?>
<svg width="88px" height="88px" viewBox="0 0 88 88" version="1.1" xmlns="http://www.w3.org/2000/svg" xmlns:xlink="http://www.w3.org/1999/xlink">
    <!-- Generator: Sketch 64 (93537) - https://sketch.com -->
    <title>_2</title>
    <desc>Created with Sketch.</desc>
    <g id="Page-3" stroke="none" stroke-width="1" fill="none" fill-rule="evenodd">
        <g id="Group-7" transform="translate(-88.000000, -6.000000)" fill-rule="nonzero">
            <g id="_2" transform="translate(88.000000, 6.000000)">
                <circle id="Oval" fill="#28DC8E" cx="44" cy="44" r="44"></circle>
                <path d="M62.6528926,30.7047589 C62.6528926,31.1637959 62.5270615,31.6100818 62.2879824,31.9926126 C62.2753992,32.0053636 62.2628161,32.0181146 62.250233,32.0436167 L50.8121854,48.7857143 L45.9173554,43.341026 L58.6640465,29.1618847 C59.6455291,28.0780475 60.8409246,28.4223252 61.1806686,28.5625865 C61.5329957,28.6900968 62.6528926,29.2383909 62.6528926,30.7047589 L62.6528926,30.7047589 Z M62.2809917,55.9296865 C62.2809917,57.3836973 61.173255,57.9273709 60.8372,58.0664502 C60.5011451,58.1928859 59.3187295,58.546906 58.347904,57.4722023 L52.9834711,51.4917927 L62.2809917,37.8367347 L62.2809917,55.9296865 L62.2809917,55.9296865 Z M44.5716852,57.5714286 C44.282429,57.9858713 43.8296802,58.2244898 43.3140496,58.2244898 C42.798419,58.2244898 42.3456701,57.9858713 42.0564139,57.5714286 L38.107438,51.8571429 L43.3140496,46.1428571 L48.5206612,51.8571429 L44.5716852,57.5714286 Z M24.7382478,32.0445495 C24.4738161,31.6492897 24.3353043,31.1902784 24.3478963,30.7057664 C24.3478963,29.2522303 25.468583,28.7039668 25.8085666,28.5637133 C25.9596704,28.4999617 26.287062,28.3979592 26.6774135,28.3979592 C27.168501,28.3979592 27.7855082,28.5637133 28.3269636,29.1629781 L41.0826446,43.3413294 L36.1843624,48.7857143 L24.7382478,32.0445495 Z M28.2801952,57.4671951 C27.3093697,58.5416247 26.1269541,58.2003353 25.7908991,58.0612914 C25.4548442,57.934888 24.3471074,57.3787127 24.3471074,55.9250726 L24.3471074,37.8367347 L33.6446281,51.4883105 L28.2801952,57.4671951 Z M62.2729294,25.3996269 C60.0216787,24.5203004 57.532796,25.1192619 55.9068927,26.9288904 L43.4749861,40.8451883 L31.0430795,26.9416343 C29.4296832,25.1320058 26.9282935,24.5330443 24.6770428,25.4123708 C22.6384102,26.2024902 21.2626459,28.0376064 21.0250139,30.1913192 C21.0125069,30.2422947 21.0125069,30.2805262 21.0125069,30.3315017 C21.0125069,30.3569894 21.0125069,30.3824771 21.0125069,30.4079649 C21.0125069,30.4207087 21.0125069,30.4334526 21.0125069,30.4461965 C21,30.5863789 21,30.7393053 21,30.8794878 C21,30.8794878 21,30.8794878 21,30.8794878 L21,56.1378233 C21,58.5846449 22.450806,60.7256138 24.7020567,61.6049403 C25.3899389,61.8725614 26.1028349,62 26.803224,62 C28.3916064,62 29.942468,61.3245753 31.0680934,60.0629329 L35.8957754,54.6595352 L39.3602001,59.7698241 C40.2982212,61.1461612 41.8365759,61.9745123 43.5,61.9745123 C45.1634241,61.9745123 46.7017788,61.1461612 47.6397999,59.7698241 L51.1042246,54.6595352 L55.9319066,60.0629329 C57.5453029,61.8725614 60.0466926,62.4715229 62.2979433,61.5921964 C64.549194,60.7128699 66,58.571901 66,56.1250794 L66,30.8667439 C65.9749861,28.4326662 64.5241801,26.2789534 62.2729294,25.3996269 L62.2729294,25.3996269 Z" id="Fill-14" fill="#FFFFFF"></path>
            </g>
        </g>
    </g>
</svg>