<?xml version="1.0" encoding="UTF-8"?>
<svg width="88px" height="88px" viewBox="0 0 88 88" version="1.1" xmlns="http://www.w3.org/2000/svg" xmlns:xlink="http://www.w3.org/1999/xlink">
    <!-- Generator: Sketch 64 (93537) - https://sketch.com -->
    <title>_7</title>
    <desc>Created with Sketch.</desc>
    <g id="Page-3" stroke="none" stroke-width="1" fill="none" fill-rule="evenodd">
        <g id="Group-7" transform="translate(-230.000000, -44.000000)">
            <g id="_7" transform="translate(230.000000, 44.000000)">
                <circle id="Oval" fill="#46A38D" fill-rule="nonzero" cx="44" cy="44" r="44"></circle>
                <path d="M57,69 L57,73 L30,73 L30,69 L57,69 Z M36.0973661,27 L49.4371338,49.92944 C50.2953831,51.4479914 50.8708003,52.6140784 51.3589692,53.9445257 L51.3589692,53.9445257 L51.4520165,53.9445257 C51.3589692,52.782396 51.3128409,51.5738338 51.3128409,49.5756566 L51.3128409,49.5756566 L51.3128409,27 L56,27 L56,60 L49.967477,60 L36.6316633,37.0666027 C35.7728867,35.5493704 35.1972059,34.3840748 34.7098279,33.0533637 L34.7098279,33.0533637 L34.6117723,33.0533637 C34.7040289,34.2160211 34.7509479,35.4240556 34.7509479,37.4232882 L34.7509479,60 L30,60 L30,27 L36.0973661,27 Z M57,14 L57,18 L30,18 L30,14 L57,14 Z" id="Fill-9" fill="#FFFFFE"></path>
            </g>
        </g>
    </g>
</svg>