<?xml version="1.0" encoding="UTF-8"?>
<svg width="88px" height="88px" viewBox="0 0 88 88" version="1.1" xmlns="http://www.w3.org/2000/svg" xmlns:xlink="http://www.w3.org/1999/xlink">
    <!-- Generator: Sketch 64 (93537) - https://sketch.com -->
    <title>monzo-bank</title>
    <desc>Created with Sketch.</desc>
    <g id="Page-3" stroke="none" stroke-width="1" fill="none" fill-rule="evenodd">
        <g id="Group-7" transform="translate(-306.000000, 0.000000)" fill-rule="nonzero">
            <g id="monzo-bank" transform="translate(306.000000, 0.000000)">
                <circle id="Oval" fill="#FFFFFF" cx="44" cy="44" r="44"></circle>
                <g id="monzo-bank-limited-vector-logo" transform="translate(16.000000, 18.000000)">
                    <path d="M54.6655405,36.7905405 C54.5540541,37.3108108 54.3310811,37.8310811 53.9594595,38.2398649 L42.4763514,49.722973 C42.2905405,50.1317568 41.8074324,50.2804054 41.3986486,50.0945946 C40.9898649,49.9087838 40.8412162,49.4256757 41.027027,49.0168919 L41.027027,23.9324324 L54.6655405,10.2939189 L54.6655405,36.7905405 L54.6655405,36.7905405 Z" id="Path" fill="#E34B5F"></path>
                    <path d="M45.3378378,0.966216216 C45.3378378,0.557432432 45.0033784,0.260135135 44.6317568,0.260135135 C44.222973,0.260135135 43.9256757,0.594594595 43.9256757,0.966216216 L27.4256757,18.1722973 L27.4256757,37.5337838 L41.0641892,23.8952703 L54.7027027,10.2567568 L45.3378378,0.966216216 Z" id="Path" fill="#E7CE9C"></path>
                    <path d="M0.185810811,36.7905405 C0.297297297,37.3108108 0.52027027,37.8310811 0.891891892,38.2398649 L12.375,49.722973 C12.5608108,50.1317568 13.0439189,50.2804054 13.4527027,50.0945946 C13.8614865,49.9087838 14.0101351,49.4256757 13.8243243,49.0168919 L13.8243243,23.9324324 L0.185810811,10.2939189 L0.185810811,36.7905405 Z" id="Path" fill="#1E7889"></path>
                    <path d="M10.9256757,0.966216216 C10.9256757,0.557432432 10.5912162,0.260135135 10.2195946,0.260135135 C9.81081081,0.260135135 9.51351351,0.594594595 9.51351351,0.966216216 L0.185810811,10.2939189 L13.8243243,23.9324324 L27.4256757,37.5337838 L27.4256757,18.1722973 L10.9256757,0.966216216 Z" id="Path" fill="#97BAA6"></path>
                </g>
            </g>
        </g>
    </g>
</svg>