<?xml version="1.0" encoding="UTF-8"?>
<svg width="72px" height="69px" viewBox="0 0 72 69" version="1.1" xmlns="http://www.w3.org/2000/svg" xmlns:xlink="http://www.w3.org/1999/xlink">
    <!-- Generator: Sketch 64 (93537) - https://sketch.com -->
    <title>Path 14</title>
    <desc>Created with Sketch.</desc>
    <g id="Page-1" stroke="none" stroke-width="1" fill="none" fill-rule="evenodd">
        <g id="lkpay---1024" transform="translate(-763.000000, -2115.000000)" fill="#FFFFFF" fill-rule="nonzero">
            <g id="3_Integration" transform="translate(97.000000, 1741.000000)">
                <g id="Card-03" transform="translate(580.000000, 330.000000)">
                    <path d="M108.901809,54.3482391 C109.328964,54.3345057 109.717666,54.5949207 109.868063,54.9961515 C110.018461,55.3973822 109.897077,55.8501216 109.566322,56.1215928 L109.566322,56.1215928 L106.90827,58.2542766 C105.569687,59.1855467 103.978818,59.6832805 102.349711,59.680509 L102.349711,59.680509 L96.5152862,59.680509 C95.9134055,59.680509 95.4254848,60.1698619 95.4254848,60.7735094 L95.4254848,60.7735094 L95.4254848,94.9630975 C95.4254848,96.0894153 96.3358734,97.0024764 97.4588947,97.0024764 L97.4588947,97.0024764 L146.553119,97.0024764 C147.67614,97.0024764 148.586529,96.0894153 148.586529,94.9630975 L148.586529,94.9630975 L148.586529,60.7735094 C148.586529,60.1698619 148.098608,59.680509 147.496727,59.680509 L147.496727,59.680509 L141.662303,59.680509 C140.046798,59.6751466 138.471019,59.1777839 137.143614,58.2542766 L137.143614,58.2542766 L134.485562,56.1215928 C134.160905,55.8546721 134.037794,55.4123531 134.177667,55.0153788 C134.317541,54.6184045 134.690415,54.3518731 135.110204,54.3482391 L135.110204,54.3482391 L147.496727,54.3482391 C151.034611,54.3482391 153.902633,57.22524 153.902633,60.7735094 L153.902633,60.7735094 L153.902633,98.2154403 C153.900745,98.8033317 154.037357,99.3833554 154.301341,99.9082582 L154.301341,99.9082582 L157.517584,106.332968 C158.293419,107.895046 158.123677,109.762533 157.079006,111.158165 C156.131117,112.352824 154.680245,113.033529 153.158379,112.997605 L153.158379,112.997605 L129.767519,112.997605 C129.221784,112.985006 128.720386,112.693342 128.438493,112.224507 C127.837577,111.102703 126.690299,110.382916 125.421604,110.33175 L125.421604,110.33175 L118.869505,110.33175 C117.508131,110.31033 116.237891,111.015835 115.53365,112.18452 C115.257829,112.665071 114.756876,112.97155 114.204624,112.997605 L114.204624,112.997605 L90.853635,112.997605 C89.3381817,113.045258 87.8876758,112.379518 86.933008,111.198153 C85.8721369,109.793612 85.7019365,107.905566 86.4944294,106.332968 L86.4944294,106.332968 L89.7106725,99.9215874 C89.9741832,99.396512 90.1107686,98.8166033 90.1093804,98.2287696 L90.1093804,98.2287696 L90.1093804,60.7735094 C90.1093804,57.22524 92.9774021,54.3482391 96.5152862,54.3482391 L96.5152862,54.3482391 Z M121.740202,85.2727152 C122.572069,85.2727152 123.255181,85.9114822 123.328515,86.7266398 L123.335033,86.8722281 L123.328515,87.0178164 C123.255181,87.832974 122.572069,88.471741 121.740202,88.471741 C120.859401,88.471741 120.14537,87.7556147 120.14537,86.8722281 C120.14537,85.9888415 120.859401,85.2727152 121.740202,85.2727152 Z M107.38672,78.8746636 C108.218587,78.8746636 108.9017,79.5134306 108.975033,80.3285883 L108.981551,80.4741765 L108.981551,86.8722281 C108.981551,87.7556147 108.267521,88.471741 107.38672,88.471741 C106.554852,88.471741 105.87174,87.832974 105.798406,87.0178164 L105.791888,86.8722281 L105.791888,80.4741765 C105.791888,79.59079 106.505919,78.8746636 107.38672,78.8746636 Z M113.766045,83.6732023 C114.597913,83.6732023 115.281025,84.3119693 115.354359,85.1271269 L115.360876,85.2727152 L115.360876,86.8722281 C115.360876,87.7556147 114.646846,88.471741 113.766045,88.471741 C112.934177,88.471741 112.251065,87.832974 112.177731,87.0178164 L112.171214,86.8722281 L112.171214,85.2727152 C112.171214,84.3893286 112.885244,83.6732023 113.766045,83.6732023 Z M136.093683,78.8746636 C136.925551,78.8746636 137.608663,79.5134306 137.681997,80.3285883 L137.688515,80.4741765 L137.688515,86.8722281 C137.688515,87.7556147 136.974484,88.471741 136.093683,88.471741 C135.261816,88.471741 134.578704,87.832974 134.50537,87.0178164 L134.498852,86.8722281 L134.498852,80.4741765 C134.498852,79.59079 135.212882,78.8746636 136.093683,78.8746636 Z M129.714358,83.6732023 C130.546226,83.6732023 131.229338,84.3119693 131.302672,85.1271269 L131.309189,85.2727152 L131.309189,86.8722281 C131.309189,87.7556147 130.595159,88.471741 129.714358,88.471741 C128.88249,88.471741 128.199378,87.832974 128.126044,87.0178164 L128.119527,86.8722281 L128.119527,85.2727152 C128.119527,84.3893286 128.833557,83.6732023 129.714358,83.6732023 Z M113.766045,78.8746636 C114.597913,78.8746636 115.281025,79.5134306 115.354359,80.3285883 L115.360876,80.4741765 L115.360876,80.7460937 C115.360876,81.6294803 114.646846,82.3456066 113.766045,82.3456066 C112.934177,82.3456066 112.251065,81.7068396 112.177731,80.891682 L112.171214,80.7460937 L112.171214,80.4741765 C112.171214,79.59079 112.885244,78.8746636 113.766045,78.8746636 Z M129.714358,78.8746636 C130.546226,78.8746636 131.229338,79.5134306 131.302672,80.3285883 L131.309189,80.4741765 L131.309189,80.7460937 C131.309189,81.6294803 130.595159,82.3456066 129.714358,82.3456066 C128.88249,82.3456066 128.199378,81.7068396 128.126044,80.891682 L128.119527,80.7460937 L128.119527,80.4741765 C128.119527,79.59079 128.833557,78.8746636 129.714358,78.8746636 Z M120.089551,44.5651121 C121.064726,43.8116293 122.423652,43.8116293 123.398826,44.5651121 C128.119527,48.2359942 131.309224,54.7780019 131.309224,62.231732 C131.312995,64.528978 131.004478,66.8160183 130.392161,69.0296618 C129.756819,71.4791005 128.104828,73.5377763 125.854866,74.6839399 C125.289893,74.9633838 124.931524,75.5396978 124.929864,76.1714869 L124.929864,76.1714869 L124.929864,80.1702691 C124.929864,81.2214991 124.080168,82.0736894 123.032015,82.0736894 L123.032015,82.0736894 L120.448388,82.0736894 C119.412566,82.0736894 118.567948,81.2409753 118.550539,80.2022593 L118.550539,80.2022593 L118.550539,76.2034771 C118.550385,75.5734736 118.195385,74.9976144 117.633511,74.7159301 C115.383549,73.5697665 113.731558,71.5110907 113.096216,69.0616521 C112.478325,66.8380638 112.167097,64.5400564 112.171173,62.231732 C112.171173,54.7780019 115.360876,48.2359942 120.089551,44.5651121 Z M108.630138,68.5379464 C109.030842,68.6432361 109.354038,68.9338086 109.504201,69.3151786 L109.547716,69.4455352 L109.547716,69.4935205 C109.984541,71.0998139 110.780885,72.5850329 111.87617,73.836198 C112.17025,74.1552308 112.248587,74.6184032 112.075855,75.0168527 C111.920397,75.3754573 111.588008,75.620656 111.207278,75.6674899 L111.078754,75.6756379 L106.126803,75.6756379 C105.232828,75.6864602 104.411618,75.1829638 104.013651,74.3800324 C103.634793,73.56929 103.767964,72.6168999 104.339973,71.9436234 L104.460204,71.8128142 L107.38672,68.8777081 C107.711249,68.5503851 108.184911,68.4209578 108.630138,68.5379464 Z M135.980227,68.7759964 L136.093683,68.8777081 L139.036147,71.8128142 C139.705638,72.4911341 139.880873,73.5168724 139.474726,74.3800324 C139.100963,75.1343536 138.353943,75.6240574 137.524516,75.672155 L137.345626,75.6756379 L132.393675,75.6756379 C131.96047,75.6737445 131.569305,75.4153022 131.396574,75.0168527 C131.223842,74.6184032 131.302179,74.1552308 131.596259,73.836198 C132.609938,72.681995 133.368806,71.3276474 133.824978,69.8621571 L133.932687,69.4935205 L133.932687,69.4455352 C134.0555,69.0006677 134.405038,68.654935 134.850265,68.5379464 C135.246022,68.4339566 135.664247,68.5246657 135.980227,68.7759964 Z M121.740202,59.680509 C119.097798,59.680509 116.955708,61.8288879 116.955708,64.4790476 C116.955708,67.1292074 119.097798,69.2775863 121.740202,69.2775863 C124.382605,69.2775863 126.524695,67.1292074 126.524695,64.4790476 C126.524695,61.8288879 124.382605,59.680509 121.740202,59.680509 Z M121.174036,50.0914292 C120.480406,49.545938 119.477193,49.6676794 118.933298,50.3633464 C117.677863,51.9805421 116.736535,53.8198934 116.158292,55.7856951 C115.905062,56.6337462 116.385247,57.5271137 117.230816,57.7810874 C118.076385,58.035061 118.967138,57.5534661 119.220368,56.705415 C119.682721,55.1229511 120.437409,53.6416992 121.445158,52.3387448 C121.989052,51.6430779 121.867667,50.6369204 121.174036,50.0914292 Z" id="Path-14"></path>
                </g>
            </g>
        </g>
    </g>
</svg>