<?xml version="1.0" encoding="UTF-8"?>
<svg width="35px" height="35px" viewBox="0 0 35 35" version="1.1" xmlns="http://www.w3.org/2000/svg" xmlns:xlink="http://www.w3.org/1999/xlink">
    <!-- Generator: Sketch 64 (93537) - https://sketch.com -->
    <title>Unknown-7</title>
    <desc>Created with Sketch.</desc>
    <g id="Page-1" stroke="none" stroke-width="1" fill="none" fill-rule="evenodd">
        <g id="lkpay---1440" transform="translate(-981.000000, -5136.000000)" fill-rule="nonzero">
            <g id="9_Currencies" transform="translate(0.000000, 4992.000000)">
                <g id="Criptocurrency" transform="translate(262.000000, 144.000000)">
                    <g id="coins/" transform="translate(719.000000, 0.000000)">
                        <g id="Group-8">
                            <g id="Unknown-7">
                                <circle id="Oval" fill="#2E3148" cx="17.2149061" cy="17.2149061" r="17.2149061"></circle>
                                <g id="Group" transform="translate(6.455590, 5.379658)" fill="#FFFFFF">
                                    <path d="M10.780835,0.570243766 C9.3875035,0.570243766 8.25777529,5.62389465 8.25777529,11.8567666 C8.25777529,18.0896386 9.3875035,23.1432894 10.780835,23.1432894 C12.1730905,23.1432894 13.3028187,18.0896386 13.3028187,11.8567666 C13.3028187,5.62389465 12.1730905,0.570243766 10.780835,0.570243766 Z M10.9551359,22.505262 C10.795898,22.7182964 10.6355842,22.5590586 10.6355842,22.5590586 C9.99432894,21.8145139 9.67370132,20.4340936 9.67370132,20.4340936 C8.55150462,16.8221911 8.81833567,9.06795181 8.81833567,9.06795181 C9.34554217,2.91254693 10.3052732,1.45788736 10.6312805,1.13510787 C11.1046904,1.47187447 11.5027851,2.87488932 11.5027851,2.87488932 C12.6755506,7.23026058 12.5690333,11.3188008 12.5690333,11.3188008 C12.6755506,14.8779826 11.9815747,18.8610815 11.9815747,18.8610815 C11.4468366,21.8887532 10.6990642,22.5257047 10.6990642,22.5257047 L10.9551359,22.505262 Z" id="Shape"></path>
                                    <path d="M20.569661,6.24040347 C19.8756851,5.03105632 14.9317792,6.56641076 9.52307089,9.66832166 C4.11436257,12.7702326 0.299108994,16.2637826 0.990933034,17.4731297 C1.68490894,18.6824769 6.62989073,17.1471224 12.038599,14.0452115 C17.4473074,10.9433006 21.2636369,7.4486747 20.5707369,6.24040347 L20.569661,6.24040347 Z M1.63003642,17.3063603 C1.36535724,17.2740824 1.42560941,17.0545923 1.42560941,17.0545923 C1.75054077,16.1292911 2.78773886,15.1631045 2.78773886,15.1631045 C5.36244326,12.3925806 12.2225834,8.76561502 12.2225834,8.76561502 C17.8238834,6.1597086 19.5636649,6.26945363 20.0047969,6.38995797 C19.9510003,6.96773326 18.9288652,8.01138694 18.9288652,8.01138694 C15.737652,11.1972205 12.1375848,13.141429 12.1375848,13.141429 C9.10345755,15.0049426 5.30219109,16.383211 5.30219109,16.383211 C2.41008686,17.4247128 1.48478565,17.0933259 1.48478565,17.0933259 L1.63003642,17.3063603 Z" id="Shape"></path>
                                    <path d="M20.5449145,17.5129392 C21.2442701,16.3078958 17.4386999,12.7971308 12.0472065,9.67154945 C6.65678902,6.54704399 1.71395909,4.99339871 1.01567946,6.200594 C0.3163239,7.40886523 4.12297002,10.9164024 9.51553937,14.0419837 C14.9091846,17.1664892 19.8466349,18.7201345 20.5449145,17.5129392 Z M1.479406,6.6664724 C1.37504063,6.42115999 1.59345475,6.36198375 1.59345475,6.36198375 C2.55856542,6.17907537 3.91423928,6.59546091 3.91423928,6.59546091 C7.60145699,7.43468759 14.1764752,11.5533539 14.1764752,11.5533539 C19.2387335,15.0953208 20.0155562,16.6564976 20.1317568,17.0987055 C20.0613301,17.0484213 20.0314609,16.9583953 20.0578617,16.8759852 C20.0842625,16.7935752 20.1608838,16.7376643 20.2474194,16.7376643 C20.3339551,16.7376643 20.4105764,16.7935752 20.4369772,16.8759852 C20.463378,16.9583953 20.4335088,17.0484213 20.3630821,17.0987055 C19.8358756,17.3407901 18.4210255,16.980353 18.4210255,16.980353 C14.0635024,15.8118913 10.5785598,13.6718633 10.5785598,13.6718633 C7.44759877,11.9826506 4.35106753,9.38427571 4.35106753,9.38427571 C1.99800504,7.40240964 1.82262819,6.43622303 1.82262819,6.43622303 L1.82047632,6.4351471 L1.479406,6.6664724 Z" id="Shape"></path>
                                    <circle id="Oval" cx="10.7539367" cy="11.8298683" r="1.32769964"></circle>
                                    <circle id="Oval" cx="16.1981507" cy="6.7310283" r="1.07593163"></circle>
                                    <circle id="Oval" cx="3.55702998" cy="9.44022415" r="1.07593163"></circle>
                                    <circle id="Oval" cx="9.18738022" cy="19.2118352" r="1.07593163"></circle>
                                </g>
                            </g>
                        </g>
                    </g>
                </g>
            </g>
        </g>
    </g>
</svg>