<?xml version="1.0" encoding="UTF-8"?>
<svg width="35px" height="35px" viewBox="0 0 35 35" version="1.1" xmlns="http://www.w3.org/2000/svg" xmlns:xlink="http://www.w3.org/1999/xlink">
    <!-- Generator: Sketch 64 (93537) - https://sketch.com -->
    <title>Unknown-10</title>
    <desc>Created with Sketch.</desc>
    <g id="Page-1" stroke="none" stroke-width="1" fill="none" fill-rule="evenodd">
        <g id="lkpay---1440" transform="translate(-371.000000, -5201.000000)" fill-rule="nonzero">
            <g id="9_Currencies" transform="translate(0.000000, 4992.000000)">
                <g id="Criptocurrency" transform="translate(262.000000, 144.000000)">
                    <g id="coins/" transform="translate(109.000000, 65.000000)">
                        <g id="Group-8">
                            <g id="Unknown-10">
                                <circle id="Oval" fill="#008CE7" cx="17.2149061" cy="17.2149061" r="17.2149061"></circle>
                                <g id="Group" transform="translate(6.455590, 8.607453)" fill="#FFFFFF">
                                    <path d="M14.0796414,0.00430372653 L6.25116279,0.00430372653 L5.60345195,3.62696554 L12.6637153,3.63772485 C16.1400504,3.63772485 17.1718689,4.89979266 17.138515,6.99463155 C17.1234519,8.06841132 16.6554217,9.88458392 16.4574503,10.4698907 C15.9227122,12.0407509 14.8209583,13.8289493 10.6915326,13.8235696 L3.82924068,13.8192659 L3.18152984,17.4462314 L10.9895657,17.4462314 C13.7428748,17.4462314 14.9156402,17.1245279 16.1540375,16.5532082 C18.9019669,15.2857607 20.538459,12.5711852 21.1958532,9.02814234 C22.1706472,3.75607733 20.9548445,0.00430372653 14.0785654,0.00430372653 L14.0796414,0.00430372653 Z" id="Path"></path>
                                    <path d="M10.5516615,8.39011488 C10.8066573,7.33032222 10.8873522,6.90532922 10.8873522,6.90532922 L2.87596526,6.90532922 C0.827391426,6.90532922 0.534738022,8.23948445 0.339994396,9.04643317 C0.084998599,10.1019221 0.00430372653,10.5322948 0.00430372653,10.5322948 L8.0167666,10.5322948 C10.0642645,10.5322948 10.3569179,9.19813953 10.5516615,8.39011488 L10.5516615,8.39011488 Z" id="Path"></path>
                                </g>
                            </g>
                        </g>
                    </g>
                </g>
            </g>
        </g>
    </g>
</svg>