<?xml version="1.0" encoding="UTF-8"?>
<svg width="35px" height="35px" viewBox="0 0 35 35" version="1.1" xmlns="http://www.w3.org/2000/svg" xmlns:xlink="http://www.w3.org/1999/xlink">
    <!-- Generator: Sketch 64 (93537) - https://sketch.com -->
    <title>Unknown-15</title>
    <desc>Created with Sketch.</desc>
    <g id="Page-1" stroke="none" stroke-width="1" fill="none" fill-rule="evenodd">
        <g id="lkpay---1440" transform="translate(-962.000000, -5201.000000)" fill-rule="nonzero">
            <g id="9_Currencies" transform="translate(0.000000, 4992.000000)">
                <g id="Criptocurrency" transform="translate(262.000000, 144.000000)">
                    <g id="coins/" transform="translate(700.000000, 65.000000)">
                        <g id="Group-8">
                            <g id="Unknown-15">
                                <circle id="Oval" fill="#0B1529" cx="17.2149061" cy="17.2149061" r="17.2149061"></circle>
                                <path d="M9.2820622,21.6520482 L14.9543738,24.9788288 L14.9543738,26.8391146 L7.53152143,22.4708322 L7.53152143,11.0767162 L17.2149061,5.37965817 L26.8982908,11.0767162 L26.8982908,22.4708322 L19.4754385,26.8391146 L19.4754385,24.9777529 L25.1466741,21.6520482 L23.6834071,20.8063659 L23.8749229,20.4739031 L25.3198991,21.308826 L25.3198991,12.8606108 L17.9820454,17.2095265 L17.9820454,29.6472962 L17.2149061,30.1260857 L16.4466909,29.6472962 L16.4466909,17.2095265 L9.10991314,12.8606108 L9.10991314,21.3077501 L10.5538134,20.4739031 L10.7453292,20.8074419 L9.2820622,21.6520482 Z M17.0018717,7.33139815 L9.8770524,11.5113925 L17.2149061,15.8613841 L24.5527599,11.5113925 L17.3859793,7.30665172 L17.3859793,9.03244606 L17.0018717,9.03244606 L17.0018717,7.33139815 L17.0018717,7.33139815 Z M17.0018717,10.1202129 L17.3859793,10.1202129 L17.3859793,11.9030317 L17.0018717,11.9030317 L17.0018717,10.1202129 L17.0018717,10.1202129 Z M17.0018717,12.9907985 L17.3859793,12.9907985 L17.3859793,14.7736173 L17.1933875,14.8607677 L17.0018717,14.7746932 L17.0018717,12.9907985 L17.0018717,12.9907985 Z M22.9840516,19.9305576 L22.7925357,20.2640964 L21.2474979,19.3710731 L21.4400897,19.0386103 L22.9840516,19.9316335 L22.9840516,19.9305576 Z M20.5470664,18.4952648 L20.3544746,18.8288036 L18.8105127,17.9357803 L18.8320314,17.7270496 L19.0020286,17.6043934 L20.5470664,18.4952648 L20.5470664,18.4952648 Z M11.4446848,19.9305576 L12.9886467,19.0386103 L13.1812384,19.3721491 L11.6372765,20.2630205 L11.4446848,19.9305576 L11.4446848,19.9305576 Z M13.8827459,18.4952648 L15.4267078,17.6043934 L15.5988568,17.7270496 L15.6182236,17.9368563 L14.0742617,18.8277277 L13.8827459,18.4952648 Z" id="Shape" fill="#FFFFFF"></path>
                            </g>
                        </g>
                    </g>
                </g>
            </g>
        </g>
    </g>
</svg>