<?xml version="1.0" encoding="UTF-8"?>
<svg width="35px" height="35px" viewBox="0 0 35 35" version="1.1" xmlns="http://www.w3.org/2000/svg" xmlns:xlink="http://www.w3.org/1999/xlink">
    <!-- Generator: Sketch 64 (93537) - https://sketch.com -->
    <title>Unknown</title>
    <desc>Created with Sketch.</desc>
    <g id="Page-1" stroke="none" stroke-width="1" fill="none" fill-rule="evenodd">
        <g id="lkpay---1440" transform="translate(-262.000000, -5136.000000)" fill-rule="nonzero">
            <g id="9_Currencies" transform="translate(0.000000, 4992.000000)">
                <g id="Criptocurrency" transform="translate(262.000000, 144.000000)">
                    <g id="coins/">
                        <g id="Group-8">
                            <g id="Unknown">
                                <circle id="Oval" fill="#F7931A" cx="17.2149061" cy="17.2149061" r="17.2149061"></circle>
                                <path d="M24.9497786,15.0845615 C25.2876212,12.8294088 23.5693584,11.6168338 21.2216755,10.8077333 L21.9834351,7.75208742 L20.1242253,7.28943682 L19.3818324,10.2643878 C18.8933595,10.1417316 18.3919753,10.0276828 17.8916671,9.91363407 L18.6394396,6.91931634 L16.7802298,6.4555898 L16.0184702,9.51015971 C15.6139199,9.41762959 15.2158252,9.32725133 14.8306416,9.23041748 L14.8327935,9.2207341 L12.2677725,8.58055478 L11.7728439,10.5667246 C11.7728439,10.5667246 13.1532642,10.8830485 13.1242141,10.9024152 C13.8773662,11.0907033 14.0129336,11.5888596 13.990339,11.9848025 L13.1231381,15.4654413 C13.1747829,15.4783525 13.2414906,15.4977192 13.3168058,15.5267694 L13.1199103,15.4783525 L11.9041076,20.3544746 C11.8115775,20.5825721 11.5781003,20.9257943 11.0508938,20.7956066 C11.0702606,20.8225049 9.69952368,20.45884 9.69952368,20.45884 L8.77637433,22.5870328 L11.1972205,23.1906304 C11.6469599,23.3036033 12.0880919,23.4219557 12.5216924,23.5327767 L11.7524012,26.6228523 L13.6105352,27.0855029 L14.3722948,24.0298571 C14.8801345,24.1665004 15.3729112,24.2934604 15.8549286,24.4139647 L15.0953208,27.4566994 L16.9545307,27.91935 L17.7238218,24.8357299 C20.8956683,25.4360997 23.2799328,25.1940151 24.283777,22.3255814 C25.0928776,20.0166321 24.2439675,18.6835528 22.5751975,17.815276 C23.7910003,17.5355338 24.7055422,16.7361166 24.9497786,15.0845615 L24.9497786,15.0845615 Z M20.6998487,21.0430709 C20.1263771,23.3530961 16.2368843,22.1039395 14.9758924,21.7908434 L15.9980275,17.6969235 C17.2590193,18.0121715 21.3012945,18.6351359 20.6998487,21.0430709 Z M21.2754721,15.0512076 C20.7514934,17.1525021 17.5150911,16.084102 16.4660577,15.8226506 L17.3913589,12.1106865 C18.4403923,12.3721379 21.8220454,12.8595349 21.2754721,15.0512076 Z" id="Shape" fill="#FFFFFF"></path>
                            </g>
                        </g>
                    </g>
                </g>
            </g>
        </g>
    </g>
</svg>