<?xml version="1.0" encoding="UTF-8"?>
<svg width="35px" height="35px" viewBox="0 0 35 35" version="1.1" xmlns="http://www.w3.org/2000/svg" xmlns:xlink="http://www.w3.org/1999/xlink">
    <!-- Generator: Sketch 64 (93537) - https://sketch.com -->
    <title>Unknown-6</title>
    <desc>Created with Sketch.</desc>
    <g id="Page-1" stroke="none" stroke-width="1" fill="none" fill-rule="evenodd">
        <g id="lkpay---1440" transform="translate(-764.000000, -5136.000000)" fill-rule="nonzero">
            <g id="9_Currencies" transform="translate(0.000000, 4992.000000)">
                <g id="Criptocurrency" transform="translate(262.000000, 144.000000)">
                    <g id="coins/" transform="translate(502.000000, 0.000000)">
                        <g id="Group-8">
                            <g id="Unknown-6">
                                <circle id="Oval" fill="#0D1E30" cx="17.2149061" cy="17.2149061" r="17.2149061"></circle>
                                <g id="b-link" transform="translate(5.379658, 6.455590)" fill="#000000">
                                    <path d="M11.5393668,0.064555898 C12.054738,-0.201199215 12.684158,0.413157747 12.4108714,0.919921547 C12.2505576,1.33307929 11.6469599,1.44282432 11.3392435,1.12757635 C11.0132362,0.826315495 11.1197534,0.228097506 11.5393668,0.0634799664 L11.5393668,0.064555898 Z M5.9929392,0.65201457 C6.3060353,0.525054637 6.70305408,0.806948725 6.67077613,1.14371533 C6.70305408,1.50738022 6.25116279,1.77636313 5.9316111,1.60313813 C5.50876996,1.44174839 5.55718689,0.766063323 5.9929392,0.65201457 L5.9929392,0.65201457 Z M17.3526254,1.61282152 C16.8630765,1.55472121 16.7856094,0.79726534 17.2557915,0.644483048 C17.6216083,0.470182124 17.957299,0.798341272 18.0110955,1.1394116 C17.9336285,1.42991314 17.6861642,1.69674419 17.3526254,1.61282152 L17.3526254,1.61282152 Z M7.255007,2.97387504 C7.77898571,2.64786775 8.52568226,3.13311292 8.44498739,3.73240684 C8.4180891,4.33600448 7.60253292,4.6867582 7.14203418,4.27790417 C6.69659849,3.95727655 6.76438218,3.22133931 7.255007,2.97387504 Z M15.249179,3.32032502 C15.4826562,2.72856262 16.429476,2.70919585 16.6952312,3.28589521 C16.9588344,3.7345587 16.634979,4.29081535 16.1669487,4.44359765 C15.5461362,4.5576464 14.9576016,3.89702438 15.249179,3.32032502 Z M10.8712132,4.41024377 C10.8658336,3.90025217 11.3370916,3.52152424 11.8287924,3.48601849 C12.1558756,3.55057439 12.510933,3.68721771 12.6508041,4.01107313 C12.9122555,4.45866069 12.6798543,5.07301765 12.2096722,5.27852059 C11.9944859,5.39687307 11.7384141,5.35275988 11.503861,5.33877277 C11.1455758,5.1666237 10.843239,4.82555338 10.8712132,4.41024377 Z M2.62312132,5.15263659 C3.1019109,4.86213505 3.74746988,5.38934155 3.56563743,5.90148501 C3.46665172,6.34369291 2.86197815,6.52337349 2.51660409,6.24147941 C2.14755954,5.97680022 2.20565985,5.34092463 2.62419725,5.15156066 L2.62312132,5.15263659 Z M20.3351079,5.15048473 C20.7407341,4.84061642 21.4110395,5.19674979 21.3615467,5.70028579 C21.3895209,6.1597086 20.8095937,6.50723452 20.4071953,6.27052956 C19.9639115,6.07363407 19.9176464,5.40225273 20.3351079,5.15156066 L20.3351079,5.15048473 Z M13.1909218,6.06610255 C13.8601513,5.82939759 14.6563407,6.11236761 15.0372205,6.70090221 C15.5407565,7.41854861 15.2739255,8.51169515 14.4917232,8.92377697 C13.6826226,9.411174 12.5001737,8.99909218 12.1999888,8.10822079 C11.8610703,7.31203138 12.3559989,6.31571869 13.1898459,6.06610255 L13.1909218,6.06610255 Z M9.26054357,6.14464556 C10.0029364,5.80034744 11.0024769,6.08869711 11.3607621,6.83539367 C11.7825273,7.56272345 11.45652,8.57517512 10.702292,8.95067526 C9.94698795,9.37351639 8.8807397,9.05288876 8.51599888,8.27283833 C8.10606893,7.51753432 8.46973382,6.49217148 9.26054357,6.14464556 L9.26054357,6.14464556 Z M5.32586159,7.46696554 C5.38288596,6.99678341 5.83370132,6.6901429 6.2888204,6.65786495 C6.25654245,7.14203418 5.87673858,7.61329224 5.35598767,7.61114038 C4.78251611,7.6595573 4.28005604,7.09792099 4.38980106,6.54489213 L5.32586159,7.46696554 Z M16.9480751,6.76115438 C17.5366097,6.42438778 18.3532418,6.91393668 18.3274194,7.57886243 C18.3672289,8.28359765 17.4634463,8.77960213 16.8781395,8.36644438 C16.2691622,8.02214626 16.3165032,7.05380779 16.9480751,6.76115438 Z M7.66278509,9.24332866 C8.34922948,9.05719249 9.13681143,9.37566825 9.47357803,9.99755674 C9.84262258,10.6237489 9.69199215,11.4931017 9.11852059,11.9536004 C8.38150743,12.6271337 7.02475764,12.3559989 6.63311852,11.4371533 C6.18230317,10.5946988 6.72995237,9.46497058 7.66170916,9.24225273 L7.66278509,9.24332866 Z M15.1157635,9.24010087 C15.7839171,9.05181283 16.5693472,9.30465677 16.9287083,9.90395069 C17.4042701,10.5893191 17.1772485,11.6125301 16.4703614,12.0536621 C15.7279686,12.5668815 14.5810255,12.2978986 14.1721715,11.4952536 C13.6772429,10.6657103 14.1753993,9.4929448 15.1157635,9.24010087 L15.1157635,9.24010087 Z M3.23747829,10.0212272 C3.83139255,9.80066125 4.48986271,10.4451443 4.24885402,11.0250714 C4.10252732,11.5522779 3.34614738,11.7480975 2.9555842,11.3586103 C2.49831325,10.9927935 2.66723452,10.1804651 3.23747829,10.0212272 L3.23747829,10.0212272 Z M19.3430989,10.8626058 C19.7498011,10.9271617 20.1457439,11.2499412 20.113466,11.6856935 C20.1511236,12.2613169 19.4463883,12.6518801 18.9471561,12.3818212 C18.7136789,12.2645447 18.5942505,12.0289157 18.4952648,11.80297 L19.3430989,10.8626058 Z M0.3163239,10.307425 C0.673533203,10.1535668 1.1157411,10.4580555 1.0339703,10.8486187 C1.01460353,11.2908266 0.350753713,11.4618997 0.107593163,11.0917792 C-0.107593163,10.8346315 0.0215186327,10.4397646 0.3163239,10.3063491 L0.3163239,10.307425 Z M22.8560157,10.2977417 C23.1077837,10.1223648 23.512334,10.2482488 23.6113197,10.5376744 C23.780241,10.8539983 23.4703727,11.2865228 23.1088596,11.2338022 C22.6010199,11.2789913 22.4374783,10.5183076 22.8560157,10.2977417 Z M9.60376576,12.4205548 C10.54413,12.180622 11.5555057,12.952065 11.5619613,13.9053404 C11.6222135,14.8682992 10.6259008,15.721513 9.66401793,15.4998711 C8.91947324,15.3815186 8.33524236,14.6757075 8.35998879,13.9365424 C8.35783693,13.2285794 8.90010647,12.5701093 9.60376576,12.4205548 L9.60376576,12.4205548 Z M13.3286411,12.4194788 C14.2829924,12.1569515 15.3244943,12.9423816 15.3094312,13.9171757 C15.36,14.8618437 14.3948893,15.6870832 13.4523732,15.4987952 C12.5647296,15.3868983 11.9105632,14.4282432 12.1580275,13.5804091 C12.2828355,13.0166209 12.762701,12.558274 13.3286411,12.4184029 L13.3286411,12.4194788 Z M6.14572149,13.0058616 C6.80634351,12.8950406 7.42608013,13.6191426 7.15817316,14.2367274 C6.9623536,14.8951975 5.9897114,15.0727263 5.55933875,14.5358364 C5.05580275,14.0193892 5.43237882,13.0768731 6.14572149,13.0058616 L6.14572149,13.0058616 Z M17.0707313,13.0349117 C17.6603418,12.7917512 18.3833679,13.2931353 18.3381788,13.9225553 C18.3618493,14.6143794 17.468826,15.092093 16.8932026,14.6875427 C16.2401121,14.3249538 16.3595405,13.2565537 17.0707313,13.0349117 L17.0707313,13.0349117 Z M20.1242253,16.0475203 C19.8939759,15.6246792 20.3125133,15.0641188 20.7913029,15.1426618 C21.0280078,15.1383581 21.1947772,15.3223424 21.3464836,15.4772765 C21.3776856,15.7279686 21.4304063,16.0270776 21.2184477,16.2196694 C20.931174,16.5779546 20.2802354,16.4757411 20.1242253,16.0475203 L20.1242253,16.0475203 Z M2.62096946,15.2599384 C3.06748109,14.9683609 3.70981227,15.4041132 3.6086747,15.9162567 C3.55487812,16.3713757 2.97387504,16.6306753 2.59191931,16.3724517 C2.18091342,16.1389745 2.19597646,15.4729728 2.62096946,15.2599384 L2.62096946,15.2599384 Z M11.4360773,16.209986 C12.0203082,15.9571421 12.7648529,16.4574503 12.7089045,17.0900981 C12.7519417,17.7894536 11.8320202,18.2736229 11.2607005,17.8540095 C10.6259008,17.4935724 10.732418,16.4327038 11.4360773,16.209986 L11.4360773,16.209986 Z M7.35399272,17.1471224 C7.85107313,16.8899748 8.51815074,17.3343345 8.47296161,17.8830597 C8.48802466,18.3327991 8.04258896,18.7158308 7.59069767,18.649123 C7.2173494,18.6415915 6.97418885,18.3112805 6.85368451,17.9981844 C6.8601401,17.657114 7.003239,17.2773102 7.35399272,17.1481984 L7.35399272,17.1471224 Z M15.6236033,17.1557299 C16.1357467,16.8437097 16.8630765,17.2912973 16.8146596,17.8766041 C16.8275707,18.4898851 16.005559,18.8815242 15.5289213,18.4791258 C15.0684225,18.1638778 15.124371,17.406422 15.6236033,17.1557299 Z M17.0621238,20.6525077 C16.8340263,20.3146652 17.1019333,19.9068871 17.4709779,19.82942 C17.7690109,19.8885962 18.0842589,20.1091622 18.0207789,20.4470048 C17.9777417,20.9064276 17.295601,21.0462987 17.0621238,20.6535836 L17.0621238,20.6525077 Z M5.64541328,20.3587784 C5.73579154,20.0897955 5.95528159,19.8240403 6.27698515,19.8939759 C6.74501541,19.9262539 6.88381059,20.6213057 6.47388064,20.8354161 C6.10591202,21.0796526 5.67769123,20.7450378 5.64541328,20.3587784 Z M11.1541832,20.6675707 C11.2434856,20.269476 11.7653124,20.0768843 12.1096105,20.2877669 C12.337708,20.3846007 12.4044158,20.6342169 12.4625161,20.8472513 C12.5736871,20.8452978 12.6848839,20.8452978 12.7960549,20.8472513 C12.6551079,21.0107929 12.4732754,21.1754105 12.2387223,21.1700308 C11.80297,21.2205996 11.409179,20.7353544 11.5727207,20.3340319 L11.1541832,20.6675707 Z" id="b"></path>
                                </g>
                                <g id="b-link" transform="translate(5.379658, 6.455590)" fill="#FFFFFF">
                                    <path d="M11.5393668,0.064555898 C12.054738,-0.201199215 12.684158,0.413157747 12.4108714,0.919921547 C12.2505576,1.33307929 11.6469599,1.44282432 11.3392435,1.12757635 C11.0132362,0.826315495 11.1197534,0.228097506 11.5393668,0.0634799664 L11.5393668,0.064555898 Z M5.9929392,0.65201457 C6.3060353,0.525054637 6.70305408,0.806948725 6.67077613,1.14371533 C6.70305408,1.50738022 6.25116279,1.77636313 5.9316111,1.60313813 C5.50876996,1.44174839 5.55718689,0.766063323 5.9929392,0.65201457 L5.9929392,0.65201457 Z M17.3526254,1.61282152 C16.8630765,1.55472121 16.7856094,0.79726534 17.2557915,0.644483048 C17.6216083,0.470182124 17.957299,0.798341272 18.0110955,1.1394116 C17.9336285,1.42991314 17.6861642,1.69674419 17.3526254,1.61282152 L17.3526254,1.61282152 Z M7.255007,2.97387504 C7.77898571,2.64786775 8.52568226,3.13311292 8.44498739,3.73240684 C8.4180891,4.33600448 7.60253292,4.6867582 7.14203418,4.27790417 C6.69659849,3.95727655 6.76438218,3.22133931 7.255007,2.97387504 Z M15.249179,3.32032502 C15.4826562,2.72856262 16.429476,2.70919585 16.6952312,3.28589521 C16.9588344,3.7345587 16.634979,4.29081535 16.1669487,4.44359765 C15.5461362,4.5576464 14.9576016,3.89702438 15.249179,3.32032502 Z M10.8712132,4.41024377 C10.8658336,3.90025217 11.3370916,3.52152424 11.8287924,3.48601849 C12.1558756,3.55057439 12.510933,3.68721771 12.6508041,4.01107313 C12.9122555,4.45866069 12.6798543,5.07301765 12.2096722,5.27852059 C11.9944859,5.39687307 11.7384141,5.35275988 11.503861,5.33877277 C11.1455758,5.1666237 10.843239,4.82555338 10.8712132,4.41024377 Z M2.62312132,5.15263659 C3.1019109,4.86213505 3.74746988,5.38934155 3.56563743,5.90148501 C3.46665172,6.34369291 2.86197815,6.52337349 2.51660409,6.24147941 C2.14755954,5.97680022 2.20565985,5.34092463 2.62419725,5.15156066 L2.62312132,5.15263659 Z M20.3351079,5.15048473 C20.7407341,4.84061642 21.4110395,5.19674979 21.3615467,5.70028579 C21.3895209,6.1597086 20.8095937,6.50723452 20.4071953,6.27052956 C19.9639115,6.07363407 19.9176464,5.40225273 20.3351079,5.15156066 L20.3351079,5.15048473 Z M13.1909218,6.06610255 C13.8601513,5.82939759 14.6563407,6.11236761 15.0372205,6.70090221 C15.5407565,7.41854861 15.2739255,8.51169515 14.4917232,8.92377697 C13.6826226,9.411174 12.5001737,8.99909218 12.1999888,8.10822079 C11.8610703,7.31203138 12.3559989,6.31571869 13.1898459,6.06610255 L13.1909218,6.06610255 Z M9.26054357,6.14464556 C10.0029364,5.80034744 11.0024769,6.08869711 11.3607621,6.83539367 C11.7825273,7.56272345 11.45652,8.57517512 10.702292,8.95067526 C9.94698795,9.37351639 8.8807397,9.05288876 8.51599888,8.27283833 C8.10606893,7.51753432 8.46973382,6.49217148 9.26054357,6.14464556 L9.26054357,6.14464556 Z M5.32586159,7.46696554 C5.38288596,6.99678341 5.83370132,6.6901429 6.2888204,6.65786495 C6.25654245,7.14203418 5.87673858,7.61329224 5.35598767,7.61114038 C4.78251611,7.6595573 4.28005604,7.09792099 4.38980106,6.54489213 L5.32586159,7.46696554 Z M16.9480751,6.76115438 C17.5366097,6.42438778 18.3532418,6.91393668 18.3274194,7.57886243 C18.3672289,8.28359765 17.4634463,8.77960213 16.8781395,8.36644438 C16.2691622,8.02214626 16.3165032,7.05380779 16.9480751,6.76115438 Z M7.66278509,9.24332866 C8.34922948,9.05719249 9.13681143,9.37566825 9.47357803,9.99755674 C9.84262258,10.6237489 9.69199215,11.4931017 9.11852059,11.9536004 C8.38150743,12.6271337 7.02475764,12.3559989 6.63311852,11.4371533 C6.18230317,10.5946988 6.72995237,9.46497058 7.66170916,9.24225273 L7.66278509,9.24332866 Z M15.1157635,9.24010087 C15.7839171,9.05181283 16.5693472,9.30465677 16.9287083,9.90395069 C17.4042701,10.5893191 17.1772485,11.6125301 16.4703614,12.0536621 C15.7279686,12.5668815 14.5810255,12.2978986 14.1721715,11.4952536 C13.6772429,10.6657103 14.1753993,9.4929448 15.1157635,9.24010087 L15.1157635,9.24010087 Z M3.23747829,10.0212272 C3.83139255,9.80066125 4.48986271,10.4451443 4.24885402,11.0250714 C4.10252732,11.5522779 3.34614738,11.7480975 2.9555842,11.3586103 C2.49831325,10.9927935 2.66723452,10.1804651 3.23747829,10.0212272 L3.23747829,10.0212272 Z M19.3430989,10.8626058 C19.7498011,10.9271617 20.1457439,11.2499412 20.113466,11.6856935 C20.1511236,12.2613169 19.4463883,12.6518801 18.9471561,12.3818212 C18.7136789,12.2645447 18.5942505,12.0289157 18.4952648,11.80297 L19.3430989,10.8626058 Z M0.3163239,10.307425 C0.673533203,10.1535668 1.1157411,10.4580555 1.0339703,10.8486187 C1.01460353,11.2908266 0.350753713,11.4618997 0.107593163,11.0917792 C-0.107593163,10.8346315 0.0215186327,10.4397646 0.3163239,10.3063491 L0.3163239,10.307425 Z M22.8560157,10.2977417 C23.1077837,10.1223648 23.512334,10.2482488 23.6113197,10.5376744 C23.780241,10.8539983 23.4703727,11.2865228 23.1088596,11.2338022 C22.6010199,11.2789913 22.4374783,10.5183076 22.8560157,10.2977417 Z M9.60376576,12.4205548 C10.54413,12.180622 11.5555057,12.952065 11.5619613,13.9053404 C11.6222135,14.8682992 10.6259008,15.721513 9.66401793,15.4998711 C8.91947324,15.3815186 8.33524236,14.6757075 8.35998879,13.9365424 C8.35783693,13.2285794 8.90010647,12.5701093 9.60376576,12.4205548 L9.60376576,12.4205548 Z M13.3286411,12.4194788 C14.2829924,12.1569515 15.3244943,12.9423816 15.3094312,13.9171757 C15.36,14.8618437 14.3948893,15.6870832 13.4523732,15.4987952 C12.5647296,15.3868983 11.9105632,14.4282432 12.1580275,13.5804091 C12.2828355,13.0166209 12.762701,12.558274 13.3286411,12.4184029 L13.3286411,12.4194788 Z M6.14572149,13.0058616 C6.80634351,12.8950406 7.42608013,13.6191426 7.15817316,14.2367274 C6.9623536,14.8951975 5.9897114,15.0727263 5.55933875,14.5358364 C5.05580275,14.0193892 5.43237882,13.0768731 6.14572149,13.0058616 L6.14572149,13.0058616 Z M17.0707313,13.0349117 C17.6603418,12.7917512 18.3833679,13.2931353 18.3381788,13.9225553 C18.3618493,14.6143794 17.468826,15.092093 16.8932026,14.6875427 C16.2401121,14.3249538 16.3595405,13.2565537 17.0707313,13.0349117 L17.0707313,13.0349117 Z M20.1242253,16.0475203 C19.8939759,15.6246792 20.3125133,15.0641188 20.7913029,15.1426618 C21.0280078,15.1383581 21.1947772,15.3223424 21.3464836,15.4772765 C21.3776856,15.7279686 21.4304063,16.0270776 21.2184477,16.2196694 C20.931174,16.5779546 20.2802354,16.4757411 20.1242253,16.0475203 L20.1242253,16.0475203 Z M2.62096946,15.2599384 C3.06748109,14.9683609 3.70981227,15.4041132 3.6086747,15.9162567 C3.55487812,16.3713757 2.97387504,16.6306753 2.59191931,16.3724517 C2.18091342,16.1389745 2.19597646,15.4729728 2.62096946,15.2599384 L2.62096946,15.2599384 Z M11.4360773,16.209986 C12.0203082,15.9571421 12.7648529,16.4574503 12.7089045,17.0900981 C12.7519417,17.7894536 11.8320202,18.2736229 11.2607005,17.8540095 C10.6259008,17.4935724 10.732418,16.4327038 11.4360773,16.209986 L11.4360773,16.209986 Z M7.35399272,17.1471224 C7.85107313,16.8899748 8.51815074,17.3343345 8.47296161,17.8830597 C8.48802466,18.3327991 8.04258896,18.7158308 7.59069767,18.649123 C7.2173494,18.6415915 6.97418885,18.3112805 6.85368451,17.9981844 C6.8601401,17.657114 7.003239,17.2773102 7.35399272,17.1481984 L7.35399272,17.1471224 Z M15.6236033,17.1557299 C16.1357467,16.8437097 16.8630765,17.2912973 16.8146596,17.8766041 C16.8275707,18.4898851 16.005559,18.8815242 15.5289213,18.4791258 C15.0684225,18.1638778 15.124371,17.406422 15.6236033,17.1557299 Z M17.0621238,20.6525077 C16.8340263,20.3146652 17.1019333,19.9068871 17.4709779,19.82942 C17.7690109,19.8885962 18.0842589,20.1091622 18.0207789,20.4470048 C17.9777417,20.9064276 17.295601,21.0462987 17.0621238,20.6535836 L17.0621238,20.6525077 Z M5.64541328,20.3587784 C5.73579154,20.0897955 5.95528159,19.8240403 6.27698515,19.8939759 C6.74501541,19.9262539 6.88381059,20.6213057 6.47388064,20.8354161 C6.10591202,21.0796526 5.67769123,20.7450378 5.64541328,20.3587784 Z M11.1541832,20.6675707 C11.2434856,20.269476 11.7653124,20.0768843 12.1096105,20.2877669 C12.337708,20.3846007 12.4044158,20.6342169 12.4625161,20.8472513 C12.5736871,20.8452978 12.6848839,20.8452978 12.7960549,20.8472513 C12.6551079,21.0107929 12.4732754,21.1754105 12.2387223,21.1700308 C11.80297,21.2205996 11.409179,20.7353544 11.5727207,20.3340319 L11.1541832,20.6675707 Z" id="b"></path>
                                </g>
                            </g>
                        </g>
                    </g>
                </g>
            </g>
        </g>
    </g>
</svg>