<?xml version="1.0" encoding="UTF-8"?>
<svg width="35px" height="35px" viewBox="0 0 35 35" version="1.1" xmlns="http://www.w3.org/2000/svg" xmlns:xlink="http://www.w3.org/1999/xlink">
    <!-- Generator: Sketch 64 (93537) - https://sketch.com -->
    <title>Unknown-13</title>
    <desc>Created with Sketch.</desc>
    <g id="Page-1" stroke="none" stroke-width="1" fill="none" fill-rule="evenodd">
        <g id="lkpay---1440" transform="translate(-729.000000, -5201.000000)" fill-rule="nonzero">
            <g id="9_Currencies" transform="translate(0.000000, 4992.000000)">
                <g id="Criptocurrency" transform="translate(262.000000, 144.000000)">
                    <g id="coins/" transform="translate(467.000000, 65.000000)">
                        <g id="Group-8">
                            <g id="Unknown-13">
                                <circle id="Oval" fill="#0D4EA0" cx="17.2149061" cy="17.2149061" r="17.2149061"></circle>
                                <path d="M15.3309498,26.8531017 C15.3158868,26.8681648 15.2857607,26.8832278 15.2706977,26.8982908 L13.6008518,26.8982908 C13.5707257,26.8982908 13.5556627,26.8832278 13.5405996,26.8681648 L8.61821238,21.3077501 L14.7488708,10.7259625 C14.7789969,10.6818493 14.8532362,10.6818493 14.8833623,10.7259625 L16.5983973,13.6933819 C16.6134604,13.7084449 16.6134604,13.738571 16.5983973,13.7686971 L12.4517568,20.9182628 C12.4366938,20.947313 12.4517568,20.9774391 12.4668198,21.0075651 L14.9425385,23.795304 L17.8658448,23.795304 C17.94116,23.795304 17.9702101,23.8706192 17.925021,23.9147324 L15.3309498,26.8531017 Z M17.1492743,6.50077893 C17.1804763,6.44052676 17.2547156,6.44052676 17.2697786,6.50077893 L25.8159036,21.1872457 C25.8309667,21.2184477 25.8159036,21.2485738 25.8008406,21.277624 L20.8795293,26.8380387 C20.8205971,26.8301102 20.7778989,26.7778564 20.781872,26.7185262 C20.785845,26.6591959 20.8351292,26.6131017 20.8945923,26.6131017 C20.9540555,26.6131017 21.0033396,26.6591959 21.0073127,26.7185262 C21.0112858,26.7778564 20.9685876,26.8301102 20.9096554,26.8380387 L16.9125693,26.8380387 C16.8372541,26.8380387 16.808204,26.7627235 16.8533931,26.7186103 L19.5227795,23.6909386 L22.0286243,20.8730737 C22.0587504,20.8429476 22.0587504,20.8128215 22.0436873,20.7837714 L17.2999047,12.6002354 L15.5106304,9.51231157 C15.4955674,9.49832446 15.4955674,9.46819837 15.5106304,9.43699636 L17.1492743,6.50077893 Z" id="Shape" fill="#FFFFFF"></path>
                            </g>
                        </g>
                    </g>
                </g>
            </g>
        </g>
    </g>
</svg>