<?xml version="1.0" encoding="UTF-8"?>
<svg width="49px" height="66px" viewBox="0 0 49 66" version="1.1" xmlns="http://www.w3.org/2000/svg" xmlns:xlink="http://www.w3.org/1999/xlink">
    <!-- Generator: Sketch 64 (93537) - https://sketch.com -->
    <title>Path 15</title>
    <desc>Created with Sketch.</desc>
    <g id="Page-1" stroke="none" stroke-width="1" fill="none" fill-rule="evenodd">
        <g id="lkpay---1024" transform="translate(-196.000000, -2121.000000)" fill="#FFFFFF" fill-rule="nonzero">
            <g id="3_Integration" transform="translate(97.000000, 1741.000000)">
                <g id="Card-01" transform="translate(0.000000, 330.000000)">
                    <path d="M122.988967,86.0879518 L142.254462,86.0879518 C143.526729,86.0879518 144.558105,85.039934 144.558105,83.7471386 L144.558105,68.2858434 C142.800897,68.2639914 141.14236,67.4567934 140.024184,66.0792169 C139.707288,65.6650362 139.219923,65.4227667 138.703625,65.4227667 C138.187326,65.4227667 137.699961,65.6650362 137.383065,66.0792169 C136.270348,67.4821821 134.593053,68.2987402 132.819798,68.300753 L132.717088,68.300753 C130.956575,68.2934149 129.292286,67.4834175 128.183167,66.0941265 C127.8775,65.6926847 127.406137,65.4576743 126.906627,65.4576743 C126.407116,65.4576743 125.935753,65.6926847 125.630086,66.0941265 C124.517722,67.4874571 122.847151,68.2978892 121.081492,68.300753 L121.081492,68.300753 C119.320978,68.2934149 117.656689,67.4834175 116.547571,66.0941265 C116.241904,65.6926847 115.770541,65.4576743 115.27103,65.4576743 C114.77152,65.4576743 114.300157,65.6926847 113.99449,66.0941265 C112.859581,67.5161582 111.14476,68.3296873 109.343186,68.300753 L109.343186,68.300753 L109.343186,83.7471386 C109.343186,85.039934 110.374562,86.0879518 111.646828,86.0879518 L113.304864,86.0879518 C114.358333,86.0879518 115.212339,85.2201664 115.212339,84.1496988 L115.212339,77.2912651 C115.161559,75.7828011 116.191911,74.4583113 117.648037,74.160241 C118.508389,74.009329 119.390194,74.2555199 120.053882,74.831928 C120.717571,75.4083362 121.094217,76.2550998 121.081492,77.1421687 L121.081492,84.1496988 C121.081492,85.2201664 121.935498,86.0879518 122.988967,86.0879518 Z M135.563628,74.160241 C137.031724,74.1307394 138.310362,75.1726664 138.600914,76.635241 C138.746824,77.4940686 138.515673,78.3747742 137.968259,79.0457112 C137.420845,79.7166482 136.611965,80.1106543 135.754375,80.1240964 L130.031951,80.1240964 C128.54744,80.1756956 127.243982,79.1287179 126.950645,77.6490964 C126.80213,76.774863 127.044411,75.8788296 127.611666,75.2044321 C128.178922,74.5300346 129.012239,74.1473112 129.885222,74.160241 L135.563628,74.160241 Z M136.34129,50.3048193 C136.969047,50.3048193 137.570674,50.5601918 138.0118,51.014038 C138.452925,51.4678841 138.696799,52.0823449 138.688952,52.7201807 C138.682763,53.0887888 138.889351,53.4269955 139.217175,53.5849398 L139.217175,53.5849398 L144.968946,56.5668675 C146.516834,57.3643719 147.492727,58.9780705 147.492727,60.7415663 L147.492727,60.7415663 L147.492727,62.5456325 C147.496925,63.292859 147.202635,64.009862 146.677146,64.5325891 C146.151657,65.0553162 145.439938,65.3390334 144.704834,65.3188253 L144.704834,65.3188253 L144.558105,65.3188253 C142.9209,65.2625356 141.622591,63.8971039 141.623528,62.2325301 C141.637911,61.3392399 141.257367,60.4864614 140.586612,59.9088526 C139.915856,59.3312438 139.025569,59.0896691 138.160728,59.2506024 C136.710664,59.5621888 135.693668,60.8917534 135.754375,62.3965361 C135.754375,64.0434093 134.44052,65.3784639 132.819798,65.3784639 L132.819798,65.3784639 L132.64737,65.3734018 C131.106906,65.2827051 129.885222,63.9845924 129.885222,62.3965361 L129.885222,62.3965361 L129.885222,62.2325301 C129.898761,61.342359 129.520165,60.492601 128.852949,59.9155956 C128.185734,59.3385902 127.299696,59.0946976 126.437094,59.2506024 C124.981169,59.5558922 123.956666,60.8871539 124.016069,62.3965361 C124.016069,64.0434093 122.702214,65.3784639 121.081492,65.3784639 L121.081492,65.3784639 L120.909063,65.3734018 C119.368599,65.2827051 118.146915,63.9845924 118.146915,62.3965361 L118.146915,62.3965361 L118.146915,62.2325301 C118.15964,61.3454612 117.782994,60.4986976 117.119305,59.9222895 C116.455617,59.3458813 115.573812,59.0996905 114.713461,59.2506024 C113.257335,59.5486728 112.226982,60.8731626 112.277762,62.3816265 C112.277762,64.0284997 110.963908,65.3635542 109.343186,65.3635542 L109.343186,65.3635542 L108.976364,65.3635542 C107.558232,65.3635542 106.408521,64.1953815 106.408521,62.7543675 L106.408521,62.7543675 L106.408521,60.7415663 C106.397822,58.9673466 107.374997,57.3393838 108.932345,56.5370482 L108.932345,56.5370482 L114.684115,53.5551205 C115.002343,53.4017831 115.207172,53.0780193 115.212339,52.7201807 C115.204492,52.0823449 115.448366,51.4678841 115.889491,51.014038 C116.330616,50.5601918 116.932244,50.3048193 117.56,50.3048193 L117.56,50.3048193 Z M102.336446,115.244578 L107.733735,115.244578 C108.909836,115.225619 109.964903,114.517051 110.42741,113.435543 C110.973944,112.232342 112.0385,111.343384 113.31988,111.020183 L123.716867,108.415967 C128.188888,107.297661 132.426294,105.39268 136.231024,102.790066 L146.498795,95.7229007 C147.112006,95.3196087 147.484567,94.6378223 147.492771,93.9039256 L147.492771,93.5957932 C147.492771,92.3771076 146.504831,91.3891566 145.286145,91.3891566 L142.910542,91.6774206 L133.885241,93.9337449 C132.398774,94.3414864 131.094975,95.2422291 130.187651,96.4882617 C130.076604,96.6343139 129.933863,96.7532641 129.770181,96.8361532 L128.398494,97.4325384 C126.859292,98.1041352 125.266714,98.6460768 123.637349,99.0527184 L115.526506,101.040669 C114.630347,101.284288 113.703596,100.767955 113.439157,99.877718 C113.225821,99.000326 113.757365,98.1144201 114.631928,97.8897671 L125.446386,95.1762142 C126.191175,95.0203576 126.781657,94.4530322 126.967169,93.7150703 C127.089237,93.1540503 126.953607,92.5678491 126.597529,92.117458 C126.24145,91.6670669 125.702361,91.3998402 125.128313,91.3891566 L114.870482,91.3891566 C113.905642,91.3878448 112.94427,91.5046781 112.007831,91.7370591 L110.477108,92.1247096 C107.966521,92.7531902 105.73164,94.1884017 104.115663,96.2099486 L103.121687,97.5021167 C100.975013,100.155863 99.7969876,103.462045 99.7819277,106.875305 L99.7819277,112.690061 C99.7819277,113.367561 100.051064,114.017313 100.530129,114.496378 C101.009194,114.975442 101.658945,115.244578 102.336446,115.244578 L102.336446,115.244578 Z" id="Path-15"></path>
                </g>
            </g>
        </g>
    </g>
</svg>