<?xml version="1.0" encoding="UTF-8"?>
<svg width="57px" height="57px" viewBox="0 0 57 57" version="1.1" xmlns="http://www.w3.org/2000/svg" xmlns:xlink="http://www.w3.org/1999/xlink">
    <!-- Generator: Sketch 64 (93537) - https://sketch.com -->
    <title>ic</title>
    <desc>Created with Sketch.</desc>
    <g id="Page-1" stroke="none" stroke-width="1" fill="none" fill-rule="evenodd">
        <g id="lkpay---1440" transform="translate(-179.000000, -2843.000000)">
            <g id="4_Features" transform="translate(167.000000, 2642.000000)">
                <g id="Point" transform="translate(0.000000, 190.000000)">
                    <g id="ic">
                        <rect id="Rectangle" x="0" y="0" width="79.085494" height="79.085494" rx="19.237012"></rect>
                        <path d="M15.6856405,33.0854204 C16.0117937,32.9453873 16.3858231,32.9737704 16.6871104,33.1614169 C17.0768348,33.4151697 17.4805707,33.6467241 17.8963917,33.8549753 C18.3059642,34.0755576 18.5254252,34.536066 18.43879,34.9931224 C17.9007901,37.9937533 18.0160376,41.0751055 18.7766774,44.0271652 L18.7766774,44.0271652 L25.5522095,44.0271652 C25.3426039,42.2565697 25.2386824,40.4750581 25.2409974,38.6921006 C25.2409974,37.651763 25.2943481,36.6203171 25.3654823,35.6155466 C25.4063055,35.2353904 25.6855801,34.9238918 26.0590407,34.8419622 C26.6393098,34.717102 27.2098535,34.5506934 27.7662614,34.3440229 C28.0456258,34.2492015 28.3538308,34.2991159 28.5889873,34.4772647 C28.8241438,34.6554136 28.9556291,34.9385979 28.9399756,35.2332003 C28.8421661,36.3802392 28.7888154,37.5450617 28.7888154,38.7276677 C28.7963908,40.5152333 28.9211431,42.3003798 29.1622699,44.0716241 L29.1622699,44.0716241 L36.1245293,44.0716241 C36.4472641,44.0376415 36.7628808,44.1821797 36.947985,44.4487298 C37.1330892,44.7152799 37.1582793,45.0615034 37.0137068,45.3520396 C36.8116749,45.8641888 36.6365642,46.3865529 36.4890921,46.9169919 C36.3822566,47.323064 36.0196876,47.6094935 35.5999147,47.6194421 L35.5999147,47.6194421 L29.8113695,47.6194421 C30.3059225,49.9416055 31.101023,52.1894084 32.1765815,54.3060565 C33.006336,55.9531487 34.1513048,57.4213672 35.546564,58.6274589 C35.7947759,58.8334342 36.114545,58.9325626 36.4357415,58.9031039 C37.2019234,58.8158331 37.9538929,59.1576375 38.3919318,59.7922814 L38.3919318,59.7922814 L38.5697673,60.0679264 C39.0047477,60.7631051 39.014352,61.6431851 38.5946463,62.347691 C38.1749407,63.0521968 37.3964386,63.4627667 36.5780098,63.4112336 C36.1037819,63.3578829 35.62659,63.2897126 35.1464342,63.2067227 C28.5578608,62.0432649 22.7148176,58.2770147 18.9343955,52.7569294 C15.1539734,47.236844 13.7543525,40.4275228 15.0510239,33.863867 C15.1224704,33.5161882 15.3594873,33.2254536 15.6856405,33.0854204 Z M26.1746337,47.6194421 L20.0393094,47.6194421 C21.7195217,51.2372396 24.373442,54.3160334 27.7040189,56.5112166 C28.0061564,56.656944 28.3663951,56.6057107 28.6159233,56.3815252 C28.8654516,56.1573396 28.9548265,55.8046232 28.8421661,55.4886625 C27.61195,52.9938343 26.7150869,50.3480883 26.1746337,47.6194421 L26.1746337,47.6194421 Z M35.3865121,14.1685866 C38.0917687,13.7185331 40.8527962,13.7185331 43.5580528,14.1685866 C55.6510699,16.1865684 64.4749639,26.7080906 64.3559133,38.9677456 C64.3191493,39.2853603 64.114689,39.5587818 63.8204267,39.6838433 C63.5261643,39.8089048 63.1874133,39.7663481 62.9332293,39.5723862 C62.5597748,39.2167153 62.1685367,38.8788278 61.7595151,38.5587239 C61.1606375,38.0965162 60.7780434,37.4084899 60.701394,36.6558842 C60.632393,35.924681 60.5255485,35.1975445 60.3812901,34.4773995 C60.21945,33.853536 59.6650853,33.4114935 59.0208486,33.392603 L59.0208486,33.392603 L54.2815328,33.392603 C54.0456726,33.3995726 53.8222545,33.5000062 53.6604817,33.6717856 C53.4987088,33.8435651 53.4118488,34.0726019 53.4190307,34.3084558 L53.4190307,34.3084558 L53.4215671,34.4166563 C53.4129131,34.5959065 53.3405884,34.7675984 53.2156274,34.8996595 C53.0656743,35.0581327 52.8545552,35.1440759 52.6365545,35.1353908 L52.6365545,35.1353908 L51.907429,35.1353908 C51.4984074,35.1353908 51.0893858,35.1887414 50.6892559,35.1887414 C50.2729856,35.2195681 49.9089017,34.9108882 49.8712127,34.495183 L49.8712127,34.495183 L49.854822,34.3723101 C49.7499979,33.8088171 49.2556174,33.3906587 48.6708231,33.392603 L48.6708231,33.392603 L42.3754468,33.392603 C42.0704848,33.3925658 41.7782646,33.5149154 41.564302,33.7322212 C41.3503393,33.949527 41.2325346,34.2436089 41.2372997,34.5485337 L41.2372997,34.5485337 L41.2372997,38.3275378 C41.2262747,38.9430083 40.9702486,39.528668 40.5259577,39.9547325 C40.0430933,40.4412778 39.5916653,40.958044 39.174408,41.5019013 C38.9629579,41.79029 38.590092,41.9100875 38.250239,41.7988261 C37.910386,41.6875647 37.6805549,41.3704556 37.6805899,41.0128537 L37.6805899,41.0128537 L37.6805899,34.5485337 C37.6853549,34.2436089 37.5675502,33.949527 37.3535876,33.7322212 C37.1396249,33.5149154 36.8474047,33.3925658 36.5424427,33.392603 L36.5424427,33.392603 L32.0965555,33.392603 C31.7762911,33.4034833 31.4847736,33.2088592 31.3720358,32.908896 C31.2592979,32.6089329 31.3504647,32.2704811 31.5986162,32.0677286 C32.0974533,31.6368903 32.561284,31.1671131 32.985733,30.6628282 C33.4294565,30.1408971 34.0790375,29.838842 34.7640879,29.8358932 L34.7640879,29.8358932 L36.5424427,29.8358932 C37.1607523,29.8360631 37.6660983,29.3425612 37.6805899,28.7244214 L37.6805899,28.7244214 L37.6805899,19.8948894 C37.6807979,19.5450996 37.5388747,19.2102373 37.2873799,18.9671256 C37.035885,18.724014 36.6964055,18.5935203 36.3468237,18.6055821 C35.7111621,18.5984171 35.1321259,18.2386609 34.8441138,17.6719457 L34.8441138,17.6719457 L34.2305814,16.7027423 C33.9346281,16.2272705 33.8964424,15.6351846 34.1288682,15.1256357 C34.361294,14.6160868 34.8334455,14.2567863 35.3865121,14.1685866 Z M43.3357584,18.9167942 C42.954816,18.6004162 42.425595,18.532059 41.9767659,18.741259 C41.5279368,18.950459 41.2399727,19.3997075 41.2372997,19.8948894 L41.2372997,19.8948894 L41.2372997,28.7244214 C41.2517913,29.3425612 41.7571372,29.8360631 42.3754468,29.8358932 L42.3754468,29.8358932 L47.5504595,29.8358932 C47.92341,29.8340257 48.2746343,29.6601748 48.5022809,29.3647555 C48.7299276,29.0693362 48.8085255,28.6854027 48.715282,28.3242915 C48.2185499,26.5559116 47.5360078,24.8450854 46.6790656,23.220413 C45.8544666,21.5825067 44.718912,20.1207821 43.3357584,18.9167942 Z M51.2138706,20.9441187 C50.9091987,20.7738701 50.5304408,20.8132334 50.2672889,21.0424945 C50.004137,21.2717556 49.9132539,21.6415492 50.0401564,21.9666728 C51.0807522,24.0389504 51.8831673,26.2224739 52.4320437,28.4754517 L52.4320437,28.4754517 L52.4320437,28.502127 C52.6382194,29.3014446 53.3673294,29.8538007 54.192615,29.8358932 L54.192615,29.8358932 L57.4736798,29.8358932 C57.7598649,29.8175 58.019611,29.6622093 58.1712846,29.4188262 C58.3229581,29.175443 58.3479376,28.8738485 58.2383724,28.6088283 C56.5588594,25.5179552 54.1469029,22.8861748 51.2138706,20.9441187 Z" id="Shape" fill="#6B7C89" fill-rule="nonzero"></path>
                        <path d="M43.204563,42.4713556 C47.1312383,38.5467811 53.3329499,38.0661201 57.8179967,41.3387139 C62.1989439,44.5353496 63.6664137,50.3822857 61.3563314,55.2604345 L61.1848895,55.6071773 C60.71777,56.476932 60.8257961,57.534636 61.4392585,58.2895729 L61.5897673,58.4581911 L62.1626089,59.0453723 L62.2822092,59.0134851 C62.7556705,58.9117203 63.2481291,59.0005087 63.654409,59.2554847 L63.822946,59.3748639 L63.9790908,59.5141663 L67.513162,63.0558656 C67.8636834,63.4039291 68.0608193,63.8774244 68.0608193,64.3713516 C68.0608193,64.7947178 67.9159847,65.2030728 67.6513893,65.5327362 L67.5092275,65.6907155 L66.3932724,66.7823421 C66.0450979,67.1326002 65.5715618,67.3295422 65.0776432,67.3295422 C64.6542844,67.3295422 64.2459005,67.1848501 63.9196719,66.9240129 L63.7637149,66.7840476 L60.2269981,63.2492229 C59.7801168,62.8021795 59.5958568,62.162121 59.7338418,61.5338636 L59.7603478,61.4357777 L59.1847291,60.8611872 C58.5368118,60.2249262 57.5995624,60.0104847 56.7506839,60.275936 L56.5405239,60.3523302 L56.3353575,60.4489216 C51.3991694,62.9913086 45.3457113,61.5608114 42.0712971,57.0780703 C38.7967305,52.5951205 39.2776958,46.3961219 43.204563,42.4713556 Z M50.3882233,42.7973934 C46.3695415,43.2115101 43.3577686,46.6666834 43.4960234,50.7042794 C43.6342782,54.7418754 46.8753427,57.9829399 50.9129387,58.1211947 C54.9505347,58.2594495 58.405708,55.2476766 58.8195229,51.2319828 C59.0470321,48.9328303 58.231807,46.652784 56.5981205,45.0190976 C54.9644341,43.3854112 52.6843878,42.570186 50.3882233,42.7973934 Z" id="Path-4" fill="#09CD0A" fill-rule="nonzero"></path>
                        <path d="M22.1199846,11.7559518 C24.6747502,11.7559518 27.1248793,12.7708285 28.9313714,14.5773206 C30.7378635,16.3838127 31.7527402,18.8339418 31.7527402,21.3887075 C31.7527402,26.7087315 27.4400086,31.0214631 22.1199846,31.0214631 C16.7999605,31.0214631 12.4872289,26.7087315 12.4872289,21.3887075 C12.4872289,16.0686834 16.7999605,11.7559518 22.1199846,11.7559518 Z M23.4960925,15.8842757 C20.9876098,15.8861468 18.7976749,17.5837707 18.1705548,20.0125995 L18.1705548,20.0125995 L17.9916607,20.0125995 C17.2316573,20.0125995 16.6155528,20.628704 16.6155528,21.3887075 C16.6155528,22.1487109 17.2316573,22.7648154 17.9916607,22.7648154 L17.9916607,22.7648154 L18.1705548,22.7648154 C18.7976749,25.1936443 20.9876098,26.8912682 23.4960925,26.8931393 C24.256096,26.8931393 24.8722005,26.2770348 24.8722005,25.5170313 C24.8722005,24.7570279 24.256096,24.1409234 23.4960925,24.1409234 C22.5187502,24.1350241 21.6178491,23.6112444 21.1291869,22.7648154 L21.1291869,22.7648154 L22.1199846,22.7648154 C22.879988,22.7648154 23.4960925,22.1487109 23.4960925,21.3887075 C23.4960925,20.628704 22.879988,20.0125995 22.1199846,20.0125995 L22.1199846,20.0125995 L21.1291869,20.0125995 C21.6178491,19.1661706 22.5187502,18.6423908 23.4960925,18.6364916 C24.256096,18.6364916 24.8722005,18.0203871 24.8722005,17.2603836 C24.8722005,16.5003802 24.256096,15.8842757 23.4960925,15.8842757 Z" id="Path-5" fill="#09CD0A" fill-rule="nonzero"></path>
                    </g>
                </g>
            </g>
        </g>
    </g>
</svg>