<?xml version="1.0" encoding="UTF-8"?>
<svg width="200px" height="40px" viewBox="0 0 200 40" version="1.1" xmlns="http://www.w3.org/2000/svg" xmlns:xlink="http://www.w3.org/1999/xlink">
    <!-- Generator: Sketch 64 (93537) - https://sketch.com -->
    <title>Logo</title>
    <desc>Created with Sketch.</desc>
    <defs>
        <polygon id="path-1" points="0 0 39.5841713 0 39.5841713 39.7115101 0 39.7115101"></polygon>
        <linearGradient x1="96.3030947%" y1="63.2457986%" x2="30.476384%" y2="7.24936603%" id="linearGradient-3">
            <stop stop-color="#EEEEEE" stop-opacity="0" offset="0%"></stop>
            <stop stop-color="#E8E8E8" offset="69.697717%"></stop>
            <stop stop-color="#D8D8D8" offset="100%"></stop>
        </linearGradient>
    </defs>
    <g id="Page-1" stroke="none" stroke-width="1" fill="none" fill-rule="evenodd">
        <g id="lkpay---1440" transform="translate(-55.000000, -25.000000)">
            <g id="0_Header-Normal">
                <g id="Header">
                    <g id="Elements-/-Logo-(On-White)" transform="translate(50.000000, 21.000000)">
                        <g id="Logo-Copy" transform="translate(5.000000, 4.000000)">
                            <g id="Logo">
                                <g id="PaperCanary">
                                    <g id="Group-3">
                                        <mask id="mask-2" fill="white">
                                            <use xlink:href="#path-1"></use>
                                        </mask>
                                        <g id="Clip-2"></g>
                                        <path d="M39.5841713,19.8557409 C39.5841713,30.8217986 30.7229655,39.7115101 19.7920715,39.7115101 C8.86117755,39.7115101 -2.82744283e-05,30.8217986 -2.82744283e-05,19.8557409 C-2.82744283e-05,8.88968317 8.86117755,-2.83653846e-05 19.7920715,-2.83653846e-05 C30.7229655,-2.83653846e-05 39.5841713,8.88968317 39.5841713,19.8557409" id="Fill-1" fill="#2BBE00" mask="url(#mask-2)"></path>
                                    </g>
                                    <path d="M33.9048565,13.9949986 L29.949264,12.9783832 C29.6687817,12.9063351 29.3724657,12.9426428 29.1160166,13.0807822 L23.2844158,16.2211139 L21.8952931,16.9691091 L21.5740956,16.3640755 C21.3416798,15.8861188 20.9178462,15.5366572 20.4139958,15.4070274 L7.27034511,11.810013 C6.94434096,11.7209457 6.61183368,11.9285803 6.53860291,12.267263 L6.53775468,12.2718014 L6.37517672,13.0237678 L5.57359667,16.7314072 C5.5303368,16.9322341 5.6886736,17.1185947 5.88800832,17.1015755 L10.0683825,16.7433207 L11.1224532,18.6608207 L14.8756008,25.4875178 C14.9423285,25.6089216 14.9666445,25.7504649 14.9440249,25.8883207 L14.434237,29.0334745 L14.1919252,30.5288976 L14.1407484,30.8446043 C14.1198254,30.9728159 14.2518669,31.0684072 14.3607235,31.0040178 L20.0642412,27.6322245 L25.3591933,24.5021043 C25.7423119,24.2757486 26.02958,23.9109697 26.16558,23.4792486 L27.9135052,17.9244553 L29.2172391,17.1358976 L31.0593181,16.0219889 L33.6351185,14.464162 L33.6351185,14.464162 L33.9438753,14.2775178 C34.0589522,14.2077389 34.0343534,14.0281861 33.9048565,13.9949986" id="Fill-4" fill="#97A5AC" style="mix-blend-mode: multiply;" opacity="0.249418713"></path>
                                    <path d="M20.9452723,16.4728 C20.9452723,16.4728 20.7006985,16.235949 20.6119168,16.1661702 C20.3153181,15.934425 19.9285239,15.8640788 19.5578462,15.8958481 L5.88772557,17.1016606 C5.68839085,17.1186798 5.5303368,16.9303337 5.57416216,16.7280885 L6.53718919,12.2718865 C6.61126819,11.9303673 6.94377547,11.7207471 7.27006237,11.8100981 L20.4137131,15.4071125 C20.9175634,15.5364587 21.3413971,15.8862038 21.5738129,16.3638769 L25.4841663,23.7343385 C25.5237505,23.8095067 25.6292141,23.8075212 25.6662536,23.7312183 L25.7134719,23.6342087 C25.8163909,23.4226029 25.8299626,23.1763913 25.7516424,22.9540067 L23.2841331,16.2209154 L29.1154511,13.0808673 C29.372183,12.9424442 29.668499,12.9061365 29.9489813,12.9781846 L33.9045738,13.9950837 C34.0340707,14.0282712 34.0586694,14.207824 33.9435925,14.2773192 L29.2169563,17.1359827 L29.8788607,13.5928625 C29.888474,13.536699 29.8466279,13.485074 29.79121,13.485074 L29.6280665,13.485074 C29.4352349,13.485074 29.2638919,13.6135692 29.2039501,13.8041846 L26.1664283,23.4753625 C26.02958,23.9096365 25.7417464,24.2758337 25.3589106,24.5021894 L14.360158,31.0041029 C14.2515842,31.0684923 14.1195426,30.9726173 14.1404657,30.8446894 L14.9437422,25.8881221 C14.9663617,25.75055 14.9420457,25.6087231 14.8750353,25.4876029 L11.1221705,18.6609058 L20.9452723,16.4728 Z" id="Fill-6" fill="#FFFFFF"></path>
                                    <path d="M14.9430353,25.6876923 L25.5725239,23.7897644 C25.5405738,23.7891971 25.5100374,23.7724615 25.4902453,23.7421106 L11.1220291,18.6618702 L14.8751767,25.4882837 C14.9093888,25.5506875 14.9314428,25.6181971 14.9430353,25.6876923" id="Fill-8" fill="#D8D8D8" opacity="0.5"></path>
                                    <polygon id="Clip-12" fill="url(#linearGradient-3)" points="24.7274012 23.4655481 11.1712266 18.6723654 11.142104 18.6613029 20.4712516 16.5832548 20.9649231 16.4731971"></polygon>
                                </g>
                                <path d="M107.801178,16.5800779 L104.210042,16.5800779 L101.907373,16.5800779 C101.78551,16.5800779 101.68655,16.6793567 101.68655,16.8016115 L101.68655,18.8473231 L101.68655,27.8113519 C101.68655,27.9338904 101.78551,28.0328856 101.907373,28.0328856 L103.988936,28.0328856 C104.111082,28.0328856 104.210042,27.9338904 104.210042,27.8113519 L104.210042,19.0688567 C104.210042,18.9466019 104.309003,18.8473231 104.431148,18.8473231 L107.30072,18.8473231 C108.824146,18.8473231 109.966433,19.7297702 109.966433,21.5911067 L109.966433,27.8113519 C109.966433,27.9338904 110.065394,28.0328856 110.187257,28.0328856 L112.292288,28.0328856 C112.414151,28.0328856 112.513394,27.9338904 112.513394,27.8113519 L112.513394,21.2572462 C112.513394,18.5361548 110.679514,16.5800779 107.801178,16.5800779 M85.9620657,27.8831731 L85.9620657,11.4879808 C85.9620657,11.4096923 86.0254004,11.3461538 86.1034378,11.3461538 L88.5282528,11.3461538 C88.606573,11.3461538 88.6696249,11.4096923 88.6696249,11.4879808 L88.6696249,18.1617885 C88.6696249,18.2400769 88.7329597,18.3036154 88.8109971,18.3036154 L91.871704,18.3036154 C91.9189222,18.3036154 91.9630304,18.2800721 91.9890428,18.2406442 L96.5364191,11.4094087 C96.5627143,11.3699808 96.6068225,11.3461538 96.6540407,11.3461538 L99.3751717,11.3461538 C99.4885522,11.3461538 99.5558453,11.4735144 99.4922279,11.5676875 L94.1870969,19.3905769 C94.1542985,19.4390817 94.1545813,19.5031875 94.1879451,19.5514087 L99.915496,27.8020481 C99.9805272,27.8962212 99.9135168,28.025 99.7992881,28.025 L97.0801364,28.025 C97.0337663,28.025 96.9905064,28.0023077 96.9642112,27.9642981 L92.0368266,20.8664279 C92.0105314,20.8281346 91.9669888,20.8054423 91.9209015,20.8054423 L88.8109971,20.8054423 C88.7329597,20.8054423 88.6696249,20.8689808 88.6696249,20.9472692 L88.6696249,27.8831731 C88.6696249,27.9614615 88.606573,28.025 88.5282528,28.025 L86.1034378,28.025 C86.0254004,28.025 85.9620657,27.9614615 85.9620657,27.8831731 M121.065164,18.6134505 C118.927335,18.6134505 117.454802,20.0668928 117.454802,22.3066236 C117.454802,24.5463543 118.927335,25.9997966 121.065164,25.9997966 C123.17896,25.9997966 124.651493,24.5463543 124.651493,22.3066236 C124.651493,20.0668928 123.17896,18.6134505 121.065164,18.6134505 M121.065164,16.278412 C124.271484,16.278412 127.240299,18.3513543 127.240299,22.3066236 C127.240299,26.2618928 124.271484,28.3345514 121.065164,28.3345514 C117.882595,28.3345514 114.890029,26.2618928 114.890029,22.3066236 C114.890029,18.3513543 117.882595,16.278412 121.065164,16.278412 M146.606586,16.774551 L142.924125,27.9278202 C142.904898,27.9856856 142.850894,28.0251135 142.789821,28.0251135 L140.262653,28.0251135 C140.201863,28.0251135 140.147576,27.9856856 140.128632,27.9278202 L137.587326,20.2348442 C137.544349,20.1052144 137.361696,20.1052144 137.318719,20.2348442 L134.777979,27.9278202 C134.758753,27.9856856 134.704466,28.0251135 134.643676,28.0251135 L132.139975,28.0251135 C132.079185,28.0251135 132.025181,27.9859692 132.005954,27.9281038 L128.299742,16.7748346 C128.269206,16.6829308 128.33763,16.5881904 128.434046,16.5881904 L130.816449,16.5881904 C130.878936,16.5881904 130.934071,16.6293202 130.951884,16.6894548 L133.356906,24.798551 C133.396491,24.9321519 133.584233,24.9344212 133.626927,24.8016712 L136.234112,16.6863346 C136.253056,16.6279019 136.307343,16.5881904 136.368699,16.5881904 L138.537913,16.5881904 C138.599268,16.5881904 138.653555,16.6276183 138.672216,16.686051 L141.302304,24.8019548 C141.345281,24.9344212 141.533023,24.9318683 141.572324,24.7982673 L143.954728,16.6900221 C143.972541,16.6296038 144.027676,16.5881904 144.090445,16.5881904 L146.472283,16.5881904 C146.568699,16.5881904 146.63684,16.6829308 146.606586,16.774551" id="Fill-17" fill="#2BBE00"></path>
                                <path d="M52.1893356,11.4879808 L52.1893356,25.3575192 C52.1893356,25.4358077 52.2526703,25.4993462 52.3307077,25.4993462 L60.7881547,25.4993462 C60.8661921,25.4993462 60.9295268,25.5628846 60.9295268,25.6411731 L60.9295268,27.8831731 C60.9295268,27.9614615 60.8661921,28.025 60.7881547,28.025 L49.6231484,28.025 C49.545111,28.025 49.4817763,27.9614615 49.4817763,27.8831731 L49.4817763,11.4879808 C49.4817763,11.4096923 49.545111,11.3461538 49.6231484,11.3461538 L52.0479634,11.3461538 C52.1260008,11.3461538 52.1893356,11.4096923 52.1893356,11.4879808 M67.8172906,18.3988663 C66.1536233,18.3988663 64.6471617,19.3689625 64.4794944,21.1990971 C64.4718603,21.2816404 64.5394362,21.3534048 64.6219975,21.3534048 L70.6580225,21.3534048 C70.7306877,21.3534048 70.7943052,21.2995106 70.7996773,21.2266115 C70.8754528,20.1969481 70.20959,18.3988663 67.8172906,18.3988663 M67.698538,16.2782702 C72.1828624,16.2782702 73.7662304,19.8639385 73.0907543,23.1455298 C73.0771825,23.2119048 73.0178062,23.2595587 72.9499476,23.2595587 L64.6610162,23.2595587 C64.5730827,23.2595587 64.5035277,23.3409673 64.5199268,23.4277654 C64.8883426,25.3557606 66.8305131,26.1664433 68.8623135,26.1664433 C70.1482345,26.1664433 71.3303884,25.8759817 72.2741888,25.44965 C72.3680599,25.4073856 72.4726753,25.4740442 72.4726753,25.5775779 L72.4726753,27.456501 C72.4726753,27.5123808 72.4412906,27.5637221 72.3906794,27.5869817 C71.3524424,28.0635202 69.93759,28.3346933 68.3875859,28.3346933 C64.8962595,28.3346933 61.9274445,26.3332317 61.9274445,22.3064817 C61.9274445,18.1605971 65.0625131,16.2782702 67.698538,16.2782702 M79.0033613,12.9512659 L79.0033613,16.4461649 C79.0033613,16.524737 79.066696,16.5879918 79.1447335,16.5879918 L82.8509455,16.5879918 C82.9680017,16.5879918 83.0344466,16.7224438 82.9634778,16.8157659 L81.4821805,18.7718428 C81.4553198,18.8072995 81.4134736,18.8277226 81.3693655,18.8277226 L79.1447335,18.8277226 C79.066696,18.8277226 79.0033613,18.8912611 79.0033613,18.9695495 L79.0033613,24.0696457 C79.0033613,25.5707418 79.6924091,26.0711072 81.1649414,26.0711072 C81.9224133,26.0711072 82.6210744,25.9326841 83.2784549,25.6915784 C83.371195,25.6575399 83.468459,25.7236313 83.468459,25.8226264 L83.468459,27.7086409 C83.468459,27.7696264 83.4314195,27.8243716 83.3740225,27.8439438 C82.5337064,28.133838 81.4802012,28.310838 80.404642,28.310838 C78.1961264,28.310838 76.486089,27.2147995 76.486089,24.5461841 L76.486089,18.9695495 C76.486089,18.8912611 76.4227543,18.8277226 76.3447168,18.8277226 L74.7203509,18.8277226 C74.6049913,18.8277226 74.5382636,18.6966745 74.6058395,18.6027851 L78.7474778,12.8681553 C78.8277771,12.7566793 79.0033613,12.8136938 79.0033613,12.9512659" id="Fill-19" fill="#2BBE00"></path>
                            </g>
                            <path d="M149.803686,15.5048077 C151.558494,15.5048077 152.940705,14.1165865 152.940705,12.3677885 C152.940705,10.6129808 151.558494,9.23076923 149.803686,9.23076923 C148.054888,9.23076923 146.666667,10.6129808 146.666667,12.3677885 C146.666667,14.1165865 148.054888,15.5048077 149.803686,15.5048077 Z M149.803686,14.8798077 C148.403446,14.8798077 147.291667,13.7680288 147.291667,12.3677885 C147.291667,10.9615385 148.403446,9.85576923 149.803686,9.85576923 C151.209936,9.85576923 152.315705,10.9615385 152.315705,12.3677885 C152.315705,13.7680288 151.209936,14.8798077 149.803686,14.8798077 Z M149.184696,13.7980769 L149.184696,12.6983173 L149.773638,12.6983173 L150.548878,13.7980769 L151.270032,13.7980769 L150.440705,12.6201923 C150.891426,12.5120192 151.137821,12.1995192 151.137821,11.71875 C151.137821,11.1899038 150.693109,10.7992788 150.092147,10.7992788 L148.595753,10.7992788 L148.595753,13.7980769 L149.184696,13.7980769 Z M149.929888,12.1935096 L149.184696,12.1935096 L149.184696,11.3341346 L149.947917,11.3341346 C150.308494,11.3341346 150.482772,11.4723558 150.482772,11.7487981 C150.482772,12.0552885 150.308494,12.1935096 149.929888,12.1935096 Z" id="®" fill="#2BBE00"></path>
                            <path d="M162.783846,27.7435897 L162.783846,22.0082051 L166.033897,22.0082051 C170.000872,22.0082051 173.179231,20.7655385 173.179231,16.5117949 C173.179231,12.2580513 170.000872,11.0153846 166.033897,11.0153846 L160.059538,11.0153846 L160.059538,27.7435897 L162.783846,27.7435897 Z M166.177282,19.5228718 L162.783846,19.5228718 L162.783846,13.5007179 L166.177282,13.5007179 C168.495333,13.5007179 170.407128,14.0742564 170.407128,16.5117949 C170.407128,18.9493333 168.471436,19.5228718 166.177282,19.5228718 Z M178.484462,28.0542564 C180.276769,28.0542564 181.686718,27.4807179 182.809897,26.5726154 C183.216154,27.5046154 184.052564,27.9108718 185.104051,27.9108718 C185.67759,27.9108718 186.251128,27.8152821 186.729077,27.6241026 L186.729077,25.784 C186.490103,25.8556923 186.227231,25.9273846 185.964359,25.9273846 C185.510308,25.9273846 185.127949,25.7362051 185.127949,25.0909744 L185.127949,20.9806154 C185.127949,17.5154872 183.072769,15.9621538 179.822718,15.9621538 C177.982615,15.9621538 176.333692,16.4162051 175.42559,16.7268718 L175.42559,19.0688205 C176.453179,18.6147692 177.863128,18.1846154 179.559846,18.1846154 C181.519436,18.1846154 182.570923,19.1883077 182.570923,20.6221538 L182.570923,21.0284103 C181.662821,20.8372308 180.563538,20.6938462 179.583744,20.6938462 C177.194,20.6938462 174.469692,21.6019487 174.469692,24.5413333 C174.469692,26.9071795 176.405385,28.0542564 178.484462,28.0542564 Z M179.249179,26.0707692 C178.102103,26.0707692 177.09841,25.4972308 177.09841,24.3740513 C177.09841,22.9402051 178.627846,22.4861538 180.08559,22.4861538 C180.898103,22.4861538 181.877897,22.6295385 182.570923,22.7729231 L182.570923,24.7086154 C181.662821,25.6167179 180.467949,26.0707692 179.249179,26.0707692 Z M189.381692,33.2877949 C191.126205,33.2877949 192.751231,32.2841026 193.993897,29.2969231 L199.370821,16.2728205 L196.694308,16.2728205 L193.276974,24.9236923 L189.40559,16.2728205 L186.681282,16.2728205 L192.129897,27.8391795 L191.890923,28.4127179 C191.221795,30.2050256 190.289795,31.0892308 189.047128,31.0892308 C188.664769,31.0892308 188.258513,31.0414359 187.876154,30.9219487 L187.876154,33.0966154 C188.378,33.2161026 188.879846,33.2877949 189.381692,33.2877949 Z" id="Pay" fill="#212B36"></path>
                        </g>
                    </g>
                </g>
            </g>
        </g>
    </g>
</svg>